<svg width="81" height="81" viewBox="0 0 81 81" fill="none" xmlns="http://www.w3.org/2000/svg">
<rect width="3" height="3" fill="#EFC6AD"/>
<rect x="3" width="3" height="3" fill="#EFC6AD"/>
<rect x="6" width="3" height="3" fill="#EFC6AD"/>
<rect x="9" width="3" height="3" fill="#EABFA6"/>
<rect x="12" width="3" height="3" fill="#E8BCA2"/>
<rect x="15" width="3" height="3" fill="#ECC1A8"/>
<rect x="18" width="3" height="3" fill="#EBC0A7"/>
<rect x="21" width="3" height="3" fill="#E6B99F"/>
<rect x="24" width="3" height="3" fill="#DBAE95"/>
<rect x="27" width="3" height="3" fill="#E0B298"/>
<rect x="30" width="3" height="3" fill="#E6B99F"/>
<rect x="33" width="3" height="3" fill="#EFC6AD"/>
<rect x="36" width="3" height="3" fill="#EFC6AD"/>
<rect x="39" width="3" height="3" fill="#DBAE95"/>
<rect x="42" width="3" height="3" fill="#DFB197"/>
<rect x="45" width="3" height="3" fill="#E4B79D"/>
<rect x="48" width="3" height="3" fill="#EDC4AB"/>
<rect x="51" width="3" height="3" fill="#F2CBB3"/>
<rect x="54" width="3" height="3" fill="#F0C8B0"/>
<rect x="57" width="3" height="3" fill="#EDC2A9"/>
<rect x="60" width="3" height="3" fill="#F2CBB3"/>
<rect x="63" width="3" height="3" fill="#E6B99F"/>
<rect x="66" width="3" height="3" fill="#E0B298"/>
<rect x="69" width="3" height="3" fill="#DBAE95"/>
<rect x="72" width="3" height="3" fill="#E0B298"/>
<rect x="75" width="3" height="3" fill="#E6B99F"/>
<rect x="78" width="3" height="3" fill="#ECC1A8"/>
<rect y="3" width="3" height="3" fill="#F1CAB2"/>
<rect x="3" y="3" width="3" height="3" fill="#EFC7AE"/>
<rect x="6" y="3" width="3" height="3" fill="#EFC6AD"/>
<rect x="9" y="3" width="3" height="3" fill="#EFC7AE"/>
<rect x="12" y="3" width="3" height="3" fill="#F1C9B1"/>
<rect x="15" y="3" width="3" height="3" fill="#F0C8AF"/>
<rect x="18" y="3" width="3" height="3" fill="#EDC2A9"/>
<rect x="21" y="3" width="3" height="3" fill="#F0C9B1"/>
<rect x="24" y="3" width="3" height="3" fill="#E4B79D"/>
<rect x="27" y="3" width="3" height="3" fill="#E0B298"/>
<rect x="30" y="3" width="3" height="3" fill="#EEC4AB"/>
<rect x="33" y="3" width="3" height="3" fill="#EFC6AD"/>
<rect x="36" y="3" width="3" height="3" fill="#EFC6AD"/>
<rect x="39" y="3" width="3" height="3" fill="#DFB197"/>
<rect x="42" y="3" width="3" height="3" fill="#E4B79D"/>
<rect x="45" y="3" width="3" height="3" fill="#EABEA5"/>
<rect x="48" y="3" width="3" height="3" fill="#E9BDA3"/>
<rect x="51" y="3" width="3" height="3" fill="#EABEA5"/>
<rect x="54" y="3" width="3" height="3" fill="#EEC4AC"/>
<rect x="57" y="3" width="3" height="3" fill="#F0C7AF"/>
<rect x="60" y="3" width="3" height="3" fill="#E8BBA1"/>
<rect x="63" y="3" width="3" height="3" fill="#E6B99F"/>
<rect x="66" y="3" width="3" height="3" fill="#E0B298"/>
<rect x="69" y="3" width="3" height="3" fill="#E4B79D"/>
<rect x="72" y="3" width="3" height="3" fill="#E5B89E"/>
<rect x="75" y="3" width="3" height="3" fill="#E6B99F"/>
<rect x="78" y="3" width="3" height="3" fill="#DDB097"/>
<rect y="6" width="3" height="3" fill="#E4B89F"/>
<rect x="3" y="6" width="3" height="3" fill="#E7BBA1"/>
<rect x="6" y="6" width="3" height="3" fill="#EDC3AA"/>
<rect x="9" y="6" width="3" height="3" fill="#ECC1A8"/>
<rect x="12" y="6" width="3" height="3" fill="#ECC2A9"/>
<rect x="15" y="6" width="3" height="3" fill="#F2CAB2"/>
<rect x="18" y="6" width="3" height="3" fill="#F1C9B1"/>
<rect x="21" y="6" width="3" height="3" fill="#F2CBB3"/>
<rect x="24" y="6" width="3" height="3" fill="#EDC3A9"/>
<rect x="27" y="6" width="3" height="3" fill="#E4B79D"/>
<rect x="30" y="6" width="3" height="3" fill="#EFC6AD"/>
<rect x="33" y="6" width="3" height="3" fill="#EDC2A9"/>
<rect x="36" y="6" width="3" height="3" fill="#E8BCA2"/>
<rect x="39" y="6" width="3" height="3" fill="#E0B298"/>
<rect x="42" y="6" width="3" height="3" fill="#E5B89E"/>
<rect x="45" y="6" width="3" height="3" fill="#EDC4AC"/>
<rect x="48" y="6" width="3" height="3" fill="#F0C7AE"/>
<rect x="51" y="6" width="3" height="3" fill="#F0C7AF"/>
<rect x="54" y="6" width="3" height="3" fill="#F1C9B1"/>
<rect x="57" y="6" width="3" height="3" fill="#F1CAB2"/>
<rect x="60" y="6" width="3" height="3" fill="#EFC7AE"/>
<rect x="63" y="6" width="3" height="3" fill="#E6B99F"/>
<rect x="66" y="6" width="3" height="3" fill="#E4B79D"/>
<rect x="69" y="6" width="3" height="3" fill="#EFC7AE"/>
<rect x="72" y="6" width="3" height="3" fill="#EDC3A9"/>
<rect x="75" y="6" width="3" height="3" fill="#E6B99F"/>
<rect x="78" y="6" width="3" height="3" fill="#E3B69C"/>
<rect y="9" width="3" height="3" fill="#E0B298"/>
<rect x="3" y="9" width="3" height="3" fill="#E5B89E"/>
<rect x="6" y="9" width="3" height="3" fill="#E8BCA2"/>
<rect x="9" y="9" width="3" height="3" fill="#ECC1A8"/>
<rect x="12" y="9" width="3" height="3" fill="#EFC7AE"/>
<rect x="15" y="9" width="3" height="3" fill="#F1CAB2"/>
<rect x="18" y="9" width="3" height="3" fill="#F0C7AF"/>
<rect x="21" y="9" width="3" height="3" fill="#F0C7AF"/>
<rect x="24" y="9" width="3" height="3" fill="#EDC2AA"/>
<rect x="27" y="9" width="3" height="3" fill="#ECC1A8"/>
<rect x="30" y="9" width="3" height="3" fill="#EDC2AA"/>
<rect x="33" y="9" width="3" height="3" fill="#E8BCA2"/>
<rect x="36" y="9" width="3" height="3" fill="#DFB298"/>
<rect x="39" y="9" width="3" height="3" fill="#E4B69C"/>
<rect x="42" y="9" width="3" height="3" fill="#ECC3AA"/>
<rect x="45" y="9" width="3" height="3" fill="#F0C9B0"/>
<rect x="48" y="9" width="3" height="3" fill="#F2CBB3"/>
<rect x="51" y="9" width="3" height="3" fill="#F1C9B1"/>
<rect x="54" y="9" width="3" height="3" fill="#F0C8B0"/>
<rect x="57" y="9" width="3" height="3" fill="#F2CBB3"/>
<rect x="60" y="9" width="3" height="3" fill="#F0C7AF"/>
<rect x="63" y="9" width="3" height="3" fill="#EABEA5"/>
<rect x="66" y="9" width="3" height="3" fill="#EABEA5"/>
<rect x="69" y="9" width="3" height="3" fill="#EBC0A7"/>
<rect x="72" y="9" width="3" height="3" fill="#EFC6AD"/>
<rect x="75" y="9" width="3" height="3" fill="#EDC4AB"/>
<rect x="78" y="9" width="3" height="3" fill="#ECC1A8"/>
<rect y="12" width="3" height="3" fill="#DEB197"/>
<rect x="3" y="12" width="3" height="3" fill="#E3B69C"/>
<rect x="6" y="12" width="3" height="3" fill="#EABEA4"/>
<rect x="9" y="12" width="3" height="3" fill="#EEC5AC"/>
<rect x="12" y="12" width="3" height="3" fill="#F1CAB2"/>
<rect x="15" y="12" width="3" height="3" fill="#F1C9B0"/>
<rect x="18" y="12" width="3" height="3" fill="#EFC6AD"/>
<rect x="21" y="12" width="3" height="3" fill="#EEC4AB"/>
<rect x="24" y="12" width="3" height="3" fill="#ECC1A8"/>
<rect x="27" y="12" width="3" height="3" fill="#EEC4AB"/>
<rect x="30" y="12" width="3" height="3" fill="#ECC1A8"/>
<rect x="33" y="12" width="3" height="3" fill="#E4B69C"/>
<rect x="36" y="12" width="3" height="3" fill="#DFB298"/>
<rect x="39" y="12" width="3" height="3" fill="#EBC0A7"/>
<rect x="42" y="12" width="3" height="3" fill="#F1CAB1"/>
<rect x="45" y="12" width="3" height="3" fill="#F2CBB3"/>
<rect x="48" y="12" width="3" height="3" fill="#F1CAB1"/>
<rect x="51" y="12" width="3" height="3" fill="#F0C8B0"/>
<rect x="54" y="12" width="3" height="3" fill="#EFC7AF"/>
<rect x="57" y="12" width="3" height="3" fill="#F0C8B0"/>
<rect x="60" y="12" width="3" height="3" fill="#EEC4AB"/>
<rect x="63" y="12" width="3" height="3" fill="#EABEA4"/>
<rect x="66" y="12" width="3" height="3" fill="#EABEA4"/>
<rect x="69" y="12" width="3" height="3" fill="#EBC0A7"/>
<rect x="72" y="12" width="3" height="3" fill="#EFC7AF"/>
<rect x="75" y="12" width="3" height="3" fill="#F2CBB3"/>
<rect x="78" y="12" width="3" height="3" fill="#EFC6AD"/>
<rect y="15" width="3" height="3" fill="#DDB097"/>
<rect x="3" y="15" width="3" height="3" fill="#E1B399"/>
<rect x="6" y="15" width="3" height="3" fill="#EDC5AC"/>
<rect x="9" y="15" width="3" height="3" fill="#F1CAB2"/>
<rect x="12" y="15" width="3" height="3" fill="#F0C8AF"/>
<rect x="15" y="15" width="3" height="3" fill="#EEC5AC"/>
<rect x="18" y="15" width="3" height="3" fill="#EEC4AB"/>
<rect x="21" y="15" width="3" height="3" fill="#ECC1A8"/>
<rect x="24" y="15" width="3" height="3" fill="#ECC1A8"/>
<rect x="27" y="15" width="3" height="3" fill="#EBBFA5"/>
<rect x="30" y="15" width="3" height="3" fill="#EBBFA5"/>
<rect x="33" y="15" width="3" height="3" fill="#E1B399"/>
<rect x="36" y="15" width="3" height="3" fill="#E8BCA2"/>
<rect x="39" y="15" width="3" height="3" fill="#F2CBB3"/>
<rect x="42" y="15" width="3" height="3" fill="#F0C9B1"/>
<rect x="45" y="15" width="3" height="3" fill="#F1C9B1"/>
<rect x="48" y="15" width="3" height="3" fill="#F0C7AE"/>
<rect x="51" y="15" width="3" height="3" fill="#F0C7AE"/>
<rect x="54" y="15" width="3" height="3" fill="#F0C8B0"/>
<rect x="57" y="15" width="3" height="3" fill="#EEC4AB"/>
<rect x="60" y="15" width="3" height="3" fill="#ECC1A8"/>
<rect x="63" y="15" width="3" height="3" fill="#E9BDA4"/>
<rect x="66" y="15" width="3" height="3" fill="#E9BDA4"/>
<rect x="69" y="15" width="3" height="3" fill="#F1CAB1"/>
<rect x="72" y="15" width="3" height="3" fill="#F2CBB3"/>
<rect x="75" y="15" width="3" height="3" fill="#F1CAB1"/>
<rect x="78" y="15" width="3" height="3" fill="#ECC2A9"/>
<rect y="18" width="3" height="3" fill="#E6B99F"/>
<rect x="3" y="18" width="3" height="3" fill="#E8BBA1"/>
<rect x="6" y="18" width="3" height="3" fill="#EFC6AE"/>
<rect x="9" y="18" width="3" height="3" fill="#F1C9B0"/>
<rect x="12" y="18" width="3" height="3" fill="#EFC6AD"/>
<rect x="15" y="18" width="3" height="3" fill="#EEC5AC"/>
<rect x="18" y="18" width="3" height="3" fill="#ECC1A8"/>
<rect x="21" y="18" width="3" height="3" fill="#ECC1A8"/>
<rect x="24" y="18" width="3" height="3" fill="#EBC0A6"/>
<rect x="27" y="18" width="3" height="3" fill="#E8BBA1"/>
<rect x="30" y="18" width="3" height="3" fill="#E8BBA1"/>
<rect x="33" y="18" width="3" height="3" fill="#E8BBA1"/>
<rect x="36" y="18" width="3" height="3" fill="#EFC6AD"/>
<rect x="39" y="18" width="3" height="3" fill="#F0C9B1"/>
<rect x="42" y="18" width="3" height="3" fill="#EDC2AA"/>
<rect x="45" y="18" width="3" height="3" fill="#EDC4AB"/>
<rect x="48" y="18" width="3" height="3" fill="#EDC2AA"/>
<rect x="51" y="18" width="3" height="3" fill="#EDC3AA"/>
<rect x="54" y="18" width="3" height="3" fill="#EEC5AC"/>
<rect x="57" y="18" width="3" height="3" fill="#ECC1A8"/>
<rect x="60" y="18" width="3" height="3" fill="#EBC0A6"/>
<rect x="63" y="18" width="3" height="3" fill="#F2CBB3"/>
<rect x="66" y="18" width="3" height="3" fill="#F2CBB3"/>
<rect x="69" y="18" width="3" height="3" fill="#EFC6AD"/>
<rect x="72" y="18" width="3" height="3" fill="#F1CAB1"/>
<rect x="75" y="18" width="3" height="3" fill="#EEC5AC"/>
<rect x="78" y="18" width="3" height="3" fill="#E6B99F"/>
<rect y="21" width="3" height="3" fill="#E6B99F"/>
<rect x="3" y="21" width="3" height="3" fill="#F0C9B1"/>
<rect x="6" y="21" width="3" height="3" fill="#F2CBB3"/>
<rect x="9" y="21" width="3" height="3" fill="#F2CBB3"/>
<rect x="12" y="21" width="3" height="3" fill="#F1C9B1"/>
<rect x="15" y="21" width="3" height="3" fill="#EEC5AC"/>
<rect x="18" y="21" width="3" height="3" fill="#ECC1A8"/>
<rect x="21" y="21" width="3" height="3" fill="#ECC1A8"/>
<rect x="24" y="21" width="3" height="3" fill="#E6B99F"/>
<rect x="27" y="21" width="3" height="3" fill="#F2CBB3"/>
<rect x="30" y="21" width="3" height="3" fill="#F2CBB3"/>
<rect x="33" y="21" width="3" height="3" fill="#F2CBB3"/>
<rect x="36" y="21" width="3" height="3" fill="#EFC6AD"/>
<rect x="39" y="21" width="3" height="3" fill="#E6B99F"/>
<rect x="42" y="21" width="3" height="3" fill="#EBC0A7"/>
<rect x="45" y="21" width="3" height="3" fill="#ECC1A8"/>
<rect x="48" y="21" width="3" height="3" fill="#ECC1A8"/>
<rect x="51" y="21" width="3" height="3" fill="#ECC1A8"/>
<rect x="54" y="21" width="3" height="3" fill="#ECC1A8"/>
<rect x="57" y="21" width="3" height="3" fill="#EBC0A7"/>
<rect x="60" y="21" width="3" height="3" fill="#E6B99F"/>
<rect x="63" y="21" width="3" height="3" fill="#F2CBB3"/>
<rect x="66" y="21" width="3" height="3" fill="#F2CBB3"/>
<rect x="69" y="21" width="3" height="3" fill="#EFC6AD"/>
<rect x="72" y="21" width="3" height="3" fill="#ECC1A8"/>
<rect x="75" y="21" width="3" height="3" fill="#ECC1A8"/>
<rect x="78" y="21" width="3" height="3" fill="#E6B99F"/>
<rect y="24" width="3" height="3" fill="#F2CBB3"/>
<rect x="3" y="24" width="3" height="3" fill="#F2CBB3"/>
<rect x="6" y="24" width="3" height="3" fill="#F0C7AE"/>
<rect x="9" y="24" width="3" height="3" fill="#EDC3AA"/>
<rect x="12" y="24" width="3" height="3" fill="#ECC1A8"/>
<rect x="15" y="24" width="3" height="3" fill="#EBBFA5"/>
<rect x="18" y="24" width="3" height="3" fill="#E6B99F"/>
<rect x="21" y="24" width="3" height="3" fill="#E6B99F"/>
<rect x="24" y="24" width="3" height="3" fill="#E0B298"/>
<rect x="27" y="24" width="3" height="3" fill="#F2CBB3"/>
<rect x="30" y="24" width="3" height="3" fill="#F2CBB3"/>
<rect x="33" y="24" width="3" height="3" fill="#EFC6AD"/>
<rect x="36" y="24" width="3" height="3" fill="#EFC6AD"/>
<rect x="39" y="24" width="3" height="3" fill="#EFC6AD"/>
<rect x="42" y="24" width="3" height="3" fill="#E1B49B"/>
<rect x="45" y="24" width="3" height="3" fill="#E9BDA4"/>
<rect x="48" y="24" width="3" height="3" fill="#ECC1A8"/>
<rect x="51" y="24" width="3" height="3" fill="#ECC1A8"/>
<rect x="54" y="24" width="3" height="3" fill="#E9BDA4"/>
<rect x="57" y="24" width="3" height="3" fill="#E2B59B"/>
<rect x="60" y="24" width="3" height="3" fill="#F2CBB3"/>
<rect x="63" y="24" width="3" height="3" fill="#F2CBB3"/>
<rect x="66" y="24" width="3" height="3" fill="#F2CBB3"/>
<rect x="69" y="24" width="3" height="3" fill="#F2CBB3"/>
<rect x="72" y="24" width="3" height="3" fill="#ECC1A8"/>
<rect x="75" y="24" width="3" height="3" fill="#ECC1A8"/>
<rect x="78" y="24" width="3" height="3" fill="#E6B99F"/>
<rect y="27" width="3" height="3" fill="#ECC1A8"/>
<rect x="3" y="27" width="3" height="3" fill="#EEC5AC"/>
<rect x="6" y="27" width="3" height="3" fill="#EDC2AA"/>
<rect x="9" y="27" width="3" height="3" fill="#ECC1A8"/>
<rect x="12" y="27" width="3" height="3" fill="#EABEA5"/>
<rect x="15" y="27" width="3" height="3" fill="#E3B69C"/>
<rect x="18" y="27" width="3" height="3" fill="#DCAE95"/>
<rect x="21" y="27" width="3" height="3" fill="#E0B298"/>
<rect x="24" y="27" width="3" height="3" fill="#F2CBB3"/>
<rect x="27" y="27" width="3" height="3" fill="#F2CBB3"/>
<rect x="30" y="27" width="3" height="3" fill="#F2CBB3"/>
<rect x="33" y="27" width="3" height="3" fill="#EFC6AD"/>
<rect x="36" y="27" width="3" height="3" fill="#ECC1A8"/>
<rect x="39" y="27" width="3" height="3" fill="#EFC6AD"/>
<rect x="42" y="27" width="3" height="3" fill="#EFC6AD"/>
<rect x="45" y="27" width="3" height="3" fill="#E8BCA2"/>
<rect x="48" y="27" width="3" height="3" fill="#EABEA4"/>
<rect x="51" y="27" width="3" height="3" fill="#E9BDA3"/>
<rect x="54" y="27" width="3" height="3" fill="#E9BEA4"/>
<rect x="57" y="27" width="3" height="3" fill="#F2CBB3"/>
<rect x="60" y="27" width="3" height="3" fill="#F2CBB3"/>
<rect x="63" y="27" width="3" height="3" fill="#EFC6AD"/>
<rect x="66" y="27" width="3" height="3" fill="#F2CBB3"/>
<rect x="69" y="27" width="3" height="3" fill="#E6B99F"/>
<rect x="72" y="27" width="3" height="3" fill="#ECC1A8"/>
<rect x="75" y="27" width="3" height="3" fill="#ECC1A8"/>
<rect x="78" y="27" width="3" height="3" fill="#ECC1A8"/>
<rect y="30" width="3" height="3" fill="#E6B99F"/>
<rect x="3" y="30" width="3" height="3" fill="#EDC4AB"/>
<rect x="6" y="30" width="3" height="3" fill="#EFC6AD"/>
<rect x="9" y="30" width="3" height="3" fill="#EDC3AA"/>
<rect x="12" y="30" width="3" height="3" fill="#E8BBA2"/>
<rect x="15" y="30" width="3" height="3" fill="#E4B89E"/>
<rect x="18" y="30" width="3" height="3" fill="#F2CBB3"/>
<rect x="21" y="30" width="3" height="3" fill="#F2CBB3"/>
<rect x="24" y="30" width="3" height="3" fill="#F2CBB3"/>
<rect x="27" y="30" width="3" height="3" fill="#EFC6AD"/>
<rect x="30" y="30" width="3" height="3" fill="#ECC1A8"/>
<rect x="33" y="30" width="3" height="3" fill="#ECC1A8"/>
<rect x="36" y="30" width="3" height="3" fill="#ECC1A8"/>
<rect x="39" y="30" width="3" height="3" fill="#ECC1A8"/>
<rect x="42" y="30" width="3" height="3" fill="#EEC5AC"/>
<rect x="45" y="30" width="3" height="3" fill="#E8BCA2"/>
<rect x="48" y="30" width="3" height="3" fill="#E2B49A"/>
<rect x="51" y="30" width="3" height="3" fill="#E7BCA2"/>
<rect x="54" y="30" width="3" height="3" fill="#EFC6AD"/>
<rect x="57" y="30" width="3" height="3" fill="#EFC7AE"/>
<rect x="60" y="30" width="3" height="3" fill="#F2CBB3"/>
<rect x="63" y="30" width="3" height="3" fill="#EFC6AD"/>
<rect x="66" y="30" width="3" height="3" fill="#ECC1A8"/>
<rect x="69" y="30" width="3" height="3" fill="#ECC1A8"/>
<rect x="72" y="30" width="3" height="3" fill="#ECC1A8"/>
<rect x="75" y="30" width="3" height="3" fill="#E6B99F"/>
<rect x="78" y="30" width="3" height="3" fill="#E6B99F"/>
<rect y="33" width="3" height="3" fill="#E6B99F"/>
<rect x="3" y="33" width="3" height="3" fill="#E6B99F"/>
<rect x="6" y="33" width="3" height="3" fill="#EDC3A9"/>
<rect x="9" y="33" width="3" height="3" fill="#EABFA6"/>
<rect x="12" y="33" width="3" height="3" fill="#EBC0A7"/>
<rect x="15" y="33" width="3" height="3" fill="#F2CBB3"/>
<rect x="18" y="33" width="3" height="3" fill="#F2CBB3"/>
<rect x="21" y="33" width="3" height="3" fill="#F2CBB3"/>
<rect x="24" y="33" width="3" height="3" fill="#EFC6AD"/>
<rect x="27" y="33" width="3" height="3" fill="#ECC1A8"/>
<rect x="30" y="33" width="3" height="3" fill="#ECC1A8"/>
<rect x="33" y="33" width="3" height="3" fill="#ECC1A8"/>
<rect x="36" y="33" width="3" height="3" fill="#ECC1A8"/>
<rect x="39" y="33" width="3" height="3" fill="#ECC1A8"/>
<rect x="42" y="33" width="3" height="3" fill="#ECC1A8"/>
<rect x="45" y="33" width="3" height="3" fill="#DFB299"/>
<rect x="48" y="33" width="3" height="3" fill="#DBAE95"/>
<rect x="51" y="33" width="3" height="3" fill="#E0B39A"/>
<rect x="54" y="33" width="3" height="3" fill="#E6B99F"/>
<rect x="57" y="33" width="3" height="3" fill="#E6B99F"/>
<rect x="60" y="33" width="3" height="3" fill="#E6B99F"/>
<rect x="63" y="33" width="3" height="3" fill="#E6B99F"/>
<rect x="66" y="33" width="3" height="3" fill="#ECC1A8"/>
<rect x="69" y="33" width="3" height="3" fill="#E6B99F"/>
<rect x="72" y="33" width="3" height="3" fill="#E6B99F"/>
<rect x="75" y="33" width="3" height="3" fill="#E6B99F"/>
<rect x="78" y="33" width="3" height="3" fill="#E0B298"/>
<rect y="36" width="3" height="3" fill="#E0B298"/>
<rect x="3" y="36" width="3" height="3" fill="#E0B298"/>
<rect x="6" y="36" width="3" height="3" fill="#E4B79D"/>
<rect x="9" y="36" width="3" height="3" fill="#E6B99F"/>
<rect x="12" y="36" width="3" height="3" fill="#E9BEA4"/>
<rect x="15" y="36" width="3" height="3" fill="#EFC7AE"/>
<rect x="18" y="36" width="3" height="3" fill="#F2CAB2"/>
<rect x="21" y="36" width="3" height="3" fill="#EFC6AD"/>
<rect x="24" y="36" width="3" height="3" fill="#F2CBB3"/>
<rect x="27" y="36" width="3" height="3" fill="#EFC6AD"/>
<rect x="30" y="36" width="3" height="3" fill="#ECC1A8"/>
<rect x="33" y="36" width="3" height="3" fill="#ECC1A8"/>
<rect x="36" y="36" width="3" height="3" fill="#ECC1A8"/>
<rect x="39" y="36" width="3" height="3" fill="#ECC1A8"/>
<rect x="42" y="36" width="3" height="3" fill="#E7BAA0"/>
<rect x="45" y="36" width="3" height="3" fill="#DEB197"/>
<rect x="48" y="36" width="3" height="3" fill="#E1B49B"/>
<rect x="51" y="36" width="3" height="3" fill="#ECC2A9"/>
<rect x="54" y="36" width="3" height="3" fill="#ECC4AB"/>
<rect x="57" y="36" width="3" height="3" fill="#DCAE95"/>
<rect x="60" y="36" width="3" height="3" fill="#E0B298"/>
<rect x="63" y="36" width="3" height="3" fill="#F2CBB3"/>
<rect x="66" y="36" width="3" height="3" fill="#E6B99F"/>
<rect x="69" y="36" width="3" height="3" fill="#F2CBB3"/>
<rect x="72" y="36" width="3" height="3" fill="#F2CBB3"/>
<rect x="75" y="36" width="3" height="3" fill="#F2CBB3"/>
<rect x="78" y="36" width="3" height="3" fill="#E6B99F"/>
<rect y="39" width="3" height="3" fill="#DBAE95"/>
<rect x="3" y="39" width="3" height="3" fill="#DFB197"/>
<rect x="6" y="39" width="3" height="3" fill="#EDC5AC"/>
<rect x="9" y="39" width="3" height="3" fill="#F2CBB3"/>
<rect x="12" y="39" width="3" height="3" fill="#EDC4AB"/>
<rect x="15" y="39" width="3" height="3" fill="#E8BCA2"/>
<rect x="18" y="39" width="3" height="3" fill="#EFC6AD"/>
<rect x="21" y="39" width="3" height="3" fill="#EFC6AD"/>
<rect x="24" y="39" width="3" height="3" fill="#EFC6AD"/>
<rect x="27" y="39" width="3" height="3" fill="#ECC1A8"/>
<rect x="30" y="39" width="3" height="3" fill="#ECC1A8"/>
<rect x="33" y="39" width="3" height="3" fill="#ECC1A8"/>
<rect x="36" y="39" width="3" height="3" fill="#ECC1A8"/>
<rect x="39" y="39" width="3" height="3" fill="#E6B99F"/>
<rect x="42" y="39" width="3" height="3" fill="#E1B399"/>
<rect x="45" y="39" width="3" height="3" fill="#EDC5AC"/>
<rect x="48" y="39" width="3" height="3" fill="#F2CBB3"/>
<rect x="51" y="39" width="3" height="3" fill="#F2CBB3"/>
<rect x="54" y="39" width="3" height="3" fill="#EDC4AC"/>
<rect x="57" y="39" width="3" height="3" fill="#E2B59B"/>
<rect x="60" y="39" width="3" height="3" fill="#F2CBB3"/>
<rect x="63" y="39" width="3" height="3" fill="#F2CBB3"/>
<rect x="66" y="39" width="3" height="3" fill="#F2CBB3"/>
<rect x="69" y="39" width="3" height="3" fill="#EFC6AD"/>
<rect x="72" y="39" width="3" height="3" fill="#F2CBB3"/>
<rect x="75" y="39" width="3" height="3" fill="#EFC6AD"/>
<rect x="78" y="39" width="3" height="3" fill="#F2CBB3"/>
<rect y="42" width="3" height="3" fill="#ECC1A8"/>
<rect x="3" y="42" width="3" height="3" fill="#F1CAB1"/>
<rect x="6" y="42" width="3" height="3" fill="#F2CBB3"/>
<rect x="9" y="42" width="3" height="3" fill="#F0C8B0"/>
<rect x="12" y="42" width="3" height="3" fill="#F0C7AF"/>
<rect x="15" y="42" width="3" height="3" fill="#F2CBB3"/>
<rect x="18" y="42" width="3" height="3" fill="#F0C9B0"/>
<rect x="21" y="42" width="3" height="3" fill="#E6B99F"/>
<rect x="24" y="42" width="3" height="3" fill="#ECC1A8"/>
<rect x="27" y="42" width="3" height="3" fill="#ECC1A8"/>
<rect x="30" y="42" width="3" height="3" fill="#ECC1A8"/>
<rect x="33" y="42" width="3" height="3" fill="#ECC1A8"/>
<rect x="36" y="42" width="3" height="3" fill="#E0B298"/>
<rect x="39" y="42" width="3" height="3" fill="#F2CBB3"/>
<rect x="42" y="42" width="3" height="3" fill="#F2CBB3"/>
<rect x="45" y="42" width="3" height="3" fill="#F2CBB3"/>
<rect x="48" y="42" width="3" height="3" fill="#F2CBB3"/>
<rect x="51" y="42" width="3" height="3" fill="#F0C8B0"/>
<rect x="54" y="42" width="3" height="3" fill="#EBC1A7"/>
<rect x="57" y="42" width="3" height="3" fill="#E2B59B"/>
<rect x="60" y="42" width="3" height="3" fill="#F2CBB3"/>
<rect x="63" y="42" width="3" height="3" fill="#EFC6AD"/>
<rect x="66" y="42" width="3" height="3" fill="#EFC6AD"/>
<rect x="69" y="42" width="3" height="3" fill="#ECC1A8"/>
<rect x="72" y="42" width="3" height="3" fill="#EFC6AD"/>
<rect x="75" y="42" width="3" height="3" fill="#ECC1A8"/>
<rect x="78" y="42" width="3" height="3" fill="#E6B99F"/>
<rect y="45" width="3" height="3" fill="#ECC1A8"/>
<rect x="3" y="45" width="3" height="3" fill="#F1CAB1"/>
<rect x="6" y="45" width="3" height="3" fill="#F0C8AE"/>
<rect x="9" y="45" width="3" height="3" fill="#EFC7AE"/>
<rect x="12" y="45" width="3" height="3" fill="#EFC7AE"/>
<rect x="15" y="45" width="3" height="3" fill="#F0C7AE"/>
<rect x="18" y="45" width="3" height="3" fill="#F0C7AE"/>
<rect x="21" y="45" width="3" height="3" fill="#EEC4AB"/>
<rect x="24" y="45" width="3" height="3" fill="#E7BAA0"/>
<rect x="27" y="45" width="3" height="3" fill="#ECC1A8"/>
<rect x="30" y="45" width="3" height="3" fill="#ECC1A8"/>
<rect x="33" y="45" width="3" height="3" fill="#E7BAA0"/>
<rect x="36" y="45" width="3" height="3" fill="#F0C8AF"/>
<rect x="39" y="45" width="3" height="3" fill="#F2CBB3"/>
<rect x="42" y="45" width="3" height="3" fill="#F2CBB3"/>
<rect x="45" y="45" width="3" height="3" fill="#F0C8AE"/>
<rect x="48" y="45" width="3" height="3" fill="#F1CAB1"/>
<rect x="51" y="45" width="3" height="3" fill="#F0C8B0"/>
<rect x="54" y="45" width="3" height="3" fill="#ECC2A9"/>
<rect x="57" y="45" width="3" height="3" fill="#E6BAA0"/>
<rect x="60" y="45" width="3" height="3" fill="#F0C7AE"/>
<rect x="63" y="45" width="3" height="3" fill="#EDC2A9"/>
<rect x="66" y="45" width="3" height="3" fill="#EDC2A9"/>
<rect x="69" y="45" width="3" height="3" fill="#ECC1A8"/>
<rect x="72" y="45" width="3" height="3" fill="#EDC2A9"/>
<rect x="75" y="45" width="3" height="3" fill="#ECC1A8"/>
<rect x="78" y="45" width="3" height="3" fill="#E6B99F"/>
<rect y="48" width="3" height="3" fill="#EEC4AB"/>
<rect x="3" y="48" width="3" height="3" fill="#F0C7AE"/>
<rect x="6" y="48" width="3" height="3" fill="#EEC4AC"/>
<rect x="9" y="48" width="3" height="3" fill="#EDC2AA"/>
<rect x="12" y="48" width="3" height="3" fill="#EDC2AA"/>
<rect x="15" y="48" width="3" height="3" fill="#EDC3AA"/>
<rect x="18" y="48" width="3" height="3" fill="#EEC5AC"/>
<rect x="21" y="48" width="3" height="3" fill="#E9BEA4"/>
<rect x="24" y="48" width="3" height="3" fill="#E2B49A"/>
<rect x="27" y="48" width="3" height="3" fill="#E1B59C"/>
<rect x="30" y="48" width="3" height="3" fill="#E1B59C"/>
<rect x="33" y="48" width="3" height="3" fill="#EDC4AB"/>
<rect x="36" y="48" width="3" height="3" fill="#F2CBB3"/>
<rect x="39" y="48" width="3" height="3" fill="#F2CBB3"/>
<rect x="42" y="48" width="3" height="3" fill="#F0C8AF"/>
<rect x="45" y="48" width="3" height="3" fill="#EFC7AE"/>
<rect x="48" y="48" width="3" height="3" fill="#EFC7AE"/>
<rect x="51" y="48" width="3" height="3" fill="#EEC5AC"/>
<rect x="54" y="48" width="3" height="3" fill="#EBC0A7"/>
<rect x="57" y="48" width="3" height="3" fill="#E7BAA0"/>
<rect x="60" y="48" width="3" height="3" fill="#EDC2AA"/>
<rect x="63" y="48" width="3" height="3" fill="#ECC1A8"/>
<rect x="66" y="48" width="3" height="3" fill="#ECC1A8"/>
<rect x="69" y="48" width="3" height="3" fill="#ECC1A8"/>
<rect x="72" y="48" width="3" height="3" fill="#ECC1A8"/>
<rect x="75" y="48" width="3" height="3" fill="#E8BCA2"/>
<rect x="78" y="48" width="3" height="3" fill="#E2B49A"/>
<rect y="51" width="3" height="3" fill="#EFC6AD"/>
<rect x="3" y="51" width="3" height="3" fill="#EDC4AB"/>
<rect x="6" y="51" width="3" height="3" fill="#ECC2A9"/>
<rect x="9" y="51" width="3" height="3" fill="#ECC1A8"/>
<rect x="12" y="51" width="3" height="3" fill="#ECC1A8"/>
<rect x="15" y="51" width="3" height="3" fill="#ECC1A8"/>
<rect x="18" y="51" width="3" height="3" fill="#ECC2A9"/>
<rect x="21" y="51" width="3" height="3" fill="#E6B99F"/>
<rect x="24" y="51" width="3" height="3" fill="#DDB096"/>
<rect x="27" y="51" width="3" height="3" fill="#E6BCA4"/>
<rect x="30" y="51" width="3" height="3" fill="#E0B39A"/>
<rect x="33" y="51" width="3" height="3" fill="#F0C8B0"/>
<rect x="36" y="51" width="3" height="3" fill="#F2CBB3"/>
<rect x="39" y="51" width="3" height="3" fill="#F2CBB3"/>
<rect x="42" y="51" width="3" height="3" fill="#F0C9B0"/>
<rect x="45" y="51" width="3" height="3" fill="#EEC5AC"/>
<rect x="48" y="51" width="3" height="3" fill="#EDC3AA"/>
<rect x="51" y="51" width="3" height="3" fill="#EDC2A9"/>
<rect x="54" y="51" width="3" height="3" fill="#EBC0A7"/>
<rect x="57" y="51" width="3" height="3" fill="#E9BDA3"/>
<rect x="60" y="51" width="3" height="3" fill="#E9BDA3"/>
<rect x="63" y="51" width="3" height="3" fill="#ECC1A8"/>
<rect x="66" y="51" width="3" height="3" fill="#ECC1A8"/>
<rect x="69" y="51" width="3" height="3" fill="#E9BDA3"/>
<rect x="72" y="51" width="3" height="3" fill="#E9BDA3"/>
<rect x="75" y="51" width="3" height="3" fill="#E3B59B"/>
<rect x="78" y="51" width="3" height="3" fill="#DDB096"/>
<rect y="54" width="3" height="3" fill="#EFC6AD"/>
<rect x="3" y="54" width="3" height="3" fill="#EDC3AA"/>
<rect x="6" y="54" width="3" height="3" fill="#ECC1A8"/>
<rect x="9" y="54" width="3" height="3" fill="#ECC1A8"/>
<rect x="12" y="54" width="3" height="3" fill="#ECC1A8"/>
<rect x="15" y="54" width="3" height="3" fill="#EABFA5"/>
<rect x="18" y="54" width="3" height="3" fill="#E6BBA2"/>
<rect x="21" y="54" width="3" height="3" fill="#EBC0A7"/>
<rect x="24" y="54" width="3" height="3" fill="#E3B8A0"/>
<rect x="27" y="54" width="3" height="3" fill="#F2CBB3"/>
<rect x="30" y="54" width="3" height="3" fill="#EBC0A7"/>
<rect x="33" y="54" width="3" height="3" fill="#E7BDA4"/>
<rect x="36" y="54" width="3" height="3" fill="#F2CBB3"/>
<rect x="39" y="54" width="3" height="3" fill="#F1C9B1"/>
<rect x="42" y="54" width="3" height="3" fill="#F1C9B1"/>
<rect x="45" y="54" width="3" height="3" fill="#EDC3AA"/>
<rect x="48" y="54" width="3" height="3" fill="#ECC1A8"/>
<rect x="51" y="54" width="3" height="3" fill="#EBC0A7"/>
<rect x="54" y="54" width="3" height="3" fill="#EABFA6"/>
<rect x="57" y="54" width="3" height="3" fill="#EBC0A6"/>
<rect x="60" y="54" width="3" height="3" fill="#E4B69C"/>
<rect x="63" y="54" width="3" height="3" fill="#ECC1A8"/>
<rect x="66" y="54" width="3" height="3" fill="#EABEA4"/>
<rect x="69" y="54" width="3" height="3" fill="#EBC0A7"/>
<rect x="72" y="54" width="3" height="3" fill="#EBC0A7"/>
<rect x="75" y="54" width="3" height="3" fill="#E5BAA0"/>
<rect x="78" y="54" width="3" height="3" fill="#DFB298"/>
<rect y="57" width="3" height="3" fill="#EEC4AB"/>
<rect x="3" y="57" width="3" height="3" fill="#EEC4AB"/>
<rect x="6" y="57" width="3" height="3" fill="#EDC2A9"/>
<rect x="9" y="57" width="3" height="3" fill="#EBC0A7"/>
<rect x="12" y="57" width="3" height="3" fill="#EBC0A7"/>
<rect x="15" y="57" width="3" height="3" fill="#EAC0A7"/>
<rect x="18" y="57" width="3" height="3" fill="#E3B8A0"/>
<rect x="21" y="57" width="3" height="3" fill="#F2CBB3"/>
<rect x="24" y="57" width="3" height="3" fill="#F2CBB3"/>
<rect x="27" y="57" width="3" height="3" fill="#F1CAB1"/>
<rect x="30" y="57" width="3" height="3" fill="#F2CBB3"/>
<rect x="33" y="57" width="3" height="3" fill="#DCAF95"/>
<rect x="36" y="57" width="3" height="3" fill="#F2CBB3"/>
<rect x="39" y="57" width="3" height="3" fill="#EFC6AD"/>
<rect x="42" y="57" width="3" height="3" fill="#EEC4AB"/>
<rect x="45" y="57" width="3" height="3" fill="#EDC2A9"/>
<rect x="48" y="57" width="3" height="3" fill="#ECC1A8"/>
<rect x="51" y="57" width="3" height="3" fill="#EABEA5"/>
<rect x="54" y="57" width="3" height="3" fill="#E7BBA2"/>
<rect x="57" y="57" width="3" height="3" fill="#E6BAA1"/>
<rect x="60" y="57" width="3" height="3" fill="#E0B298"/>
<rect x="63" y="57" width="3" height="3" fill="#EBBFA5"/>
<rect x="66" y="57" width="3" height="3" fill="#E9BDA4"/>
<rect x="69" y="57" width="3" height="3" fill="#F1CAB1"/>
<rect x="72" y="57" width="3" height="3" fill="#F1CAB1"/>
<rect x="75" y="57" width="3" height="3" fill="#EEC4AB"/>
<rect x="78" y="57" width="3" height="3" fill="#E8BBA1"/>
<rect y="60" width="3" height="3" fill="#ECC1A8"/>
<rect x="3" y="60" width="3" height="3" fill="#ECC1A8"/>
<rect x="6" y="60" width="3" height="3" fill="#ECC1A8"/>
<rect x="9" y="60" width="3" height="3" fill="#E9BDA3"/>
<rect x="12" y="60" width="3" height="3" fill="#EBC0A7"/>
<rect x="15" y="60" width="3" height="3" fill="#F2CBB3"/>
<rect x="18" y="60" width="3" height="3" fill="#F2CBB3"/>
<rect x="21" y="60" width="3" height="3" fill="#F2CBB3"/>
<rect x="24" y="60" width="3" height="3" fill="#F2CBB3"/>
<rect x="27" y="60" width="3" height="3" fill="#EFC6AD"/>
<rect x="30" y="60" width="3" height="3" fill="#F2CBB3"/>
<rect x="33" y="60" width="3" height="3" fill="#E0B298"/>
<rect x="36" y="60" width="3" height="3" fill="#F2CBB3"/>
<rect x="39" y="60" width="3" height="3" fill="#EFC6AD"/>
<rect x="42" y="60" width="3" height="3" fill="#ECC2A9"/>
<rect x="45" y="60" width="3" height="3" fill="#ECC1A8"/>
<rect x="48" y="60" width="3" height="3" fill="#ECC1A8"/>
<rect x="51" y="60" width="3" height="3" fill="#ECC1A8"/>
<rect x="54" y="60" width="3" height="3" fill="#E8BCA3"/>
<rect x="57" y="60" width="3" height="3" fill="#DCAE95"/>
<rect x="60" y="60" width="3" height="3" fill="#E0B298"/>
<rect x="63" y="60" width="3" height="3" fill="#E6B99F"/>
<rect x="66" y="60" width="3" height="3" fill="#F2CBB3"/>
<rect x="69" y="60" width="3" height="3" fill="#EFC6AD"/>
<rect x="72" y="60" width="3" height="3" fill="#EFC6AD"/>
<rect x="75" y="60" width="3" height="3" fill="#ECC1A8"/>
<rect x="78" y="60" width="3" height="3" fill="#ECC1A8"/>
<rect y="63" width="3" height="3" fill="#E0B298"/>
<rect x="3" y="63" width="3" height="3" fill="#E0B298"/>
<rect x="6" y="63" width="3" height="3" fill="#E4B79D"/>
<rect x="9" y="63" width="3" height="3" fill="#ECC2A9"/>
<rect x="12" y="63" width="3" height="3" fill="#F2CBB3"/>
<rect x="15" y="63" width="3" height="3" fill="#F2CBB3"/>
<rect x="18" y="63" width="3" height="3" fill="#F2CBB3"/>
<rect x="21" y="63" width="3" height="3" fill="#F2CBB3"/>
<rect x="24" y="63" width="3" height="3" fill="#EFC6AD"/>
<rect x="27" y="63" width="3" height="3" fill="#EFC6AD"/>
<rect x="30" y="63" width="3" height="3" fill="#ECC1A8"/>
<rect x="33" y="63" width="3" height="3" fill="#EFC6AD"/>
<rect x="36" y="63" width="3" height="3" fill="#E6B99F"/>
<rect x="39" y="63" width="3" height="3" fill="#ECC1A8"/>
<rect x="42" y="63" width="3" height="3" fill="#ECC1A8"/>
<rect x="45" y="63" width="3" height="3" fill="#ECC1A8"/>
<rect x="48" y="63" width="3" height="3" fill="#ECC1A8"/>
<rect x="51" y="63" width="3" height="3" fill="#E6B9A0"/>
<rect x="54" y="63" width="3" height="3" fill="#E4B89E"/>
<rect x="57" y="63" width="3" height="3" fill="#F2CBB3"/>
<rect x="60" y="63" width="3" height="3" fill="#F2CBB3"/>
<rect x="63" y="63" width="3" height="3" fill="#EFC6AD"/>
<rect x="66" y="63" width="3" height="3" fill="#EFC6AD"/>
<rect x="69" y="63" width="3" height="3" fill="#EFC6AD"/>
<rect x="72" y="63" width="3" height="3" fill="#ECC1A8"/>
<rect x="75" y="63" width="3" height="3" fill="#ECC1A8"/>
<rect x="78" y="63" width="3" height="3" fill="#EFC6AD"/>
<rect y="66" width="3" height="3" fill="#DBAE95"/>
<rect x="3" y="66" width="3" height="3" fill="#E4B79D"/>
<rect x="6" y="66" width="3" height="3" fill="#E1B399"/>
<rect x="9" y="66" width="3" height="3" fill="#E3B59B"/>
<rect x="12" y="66" width="3" height="3" fill="#EBC0A7"/>
<rect x="15" y="66" width="3" height="3" fill="#F1CAB1"/>
<rect x="18" y="66" width="3" height="3" fill="#EFC7AE"/>
<rect x="21" y="66" width="3" height="3" fill="#F2CBB3"/>
<rect x="24" y="66" width="3" height="3" fill="#EFC6AD"/>
<rect x="27" y="66" width="3" height="3" fill="#ECC1A8"/>
<rect x="30" y="66" width="3" height="3" fill="#ECC1A8"/>
<rect x="33" y="66" width="3" height="3" fill="#E6B99F"/>
<rect x="36" y="66" width="3" height="3" fill="#E0B298"/>
<rect x="39" y="66" width="3" height="3" fill="#ECC1A8"/>
<rect x="42" y="66" width="3" height="3" fill="#ECC1A8"/>
<rect x="45" y="66" width="3" height="3" fill="#ECC1A8"/>
<rect x="48" y="66" width="3" height="3" fill="#ECC1A8"/>
<rect x="51" y="66" width="3" height="3" fill="#E9BDA3"/>
<rect x="54" y="66" width="3" height="3" fill="#E9BEA4"/>
<rect x="57" y="66" width="3" height="3" fill="#F2CAB2"/>
<rect x="60" y="66" width="3" height="3" fill="#EFC6AD"/>
<rect x="63" y="66" width="3" height="3" fill="#ECC1A8"/>
<rect x="66" y="66" width="3" height="3" fill="#EFC6AD"/>
<rect x="69" y="66" width="3" height="3" fill="#ECC1A8"/>
<rect x="72" y="66" width="3" height="3" fill="#ECC1A8"/>
<rect x="75" y="66" width="3" height="3" fill="#ECC1A8"/>
<rect x="78" y="66" width="3" height="3" fill="#E0B298"/>
<rect y="69" width="3" height="3" fill="#E0B298"/>
<rect x="3" y="69" width="3" height="3" fill="#F0C8AF"/>
<rect x="6" y="69" width="3" height="3" fill="#F2CBB3"/>
<rect x="9" y="69" width="3" height="3" fill="#F2CBB3"/>
<rect x="12" y="69" width="3" height="3" fill="#EDC4AB"/>
<rect x="15" y="69" width="3" height="3" fill="#E8BCA2"/>
<rect x="18" y="69" width="3" height="3" fill="#EFC6AD"/>
<rect x="21" y="69" width="3" height="3" fill="#EFC6AD"/>
<rect x="24" y="69" width="3" height="3" fill="#ECC1A8"/>
<rect x="27" y="69" width="3" height="3" fill="#ECC1A8"/>
<rect x="30" y="69" width="3" height="3" fill="#ECC1A8"/>
<rect x="33" y="69" width="3" height="3" fill="#ECC1A8"/>
<rect x="36" y="69" width="3" height="3" fill="#E0B298"/>
<rect x="39" y="69" width="3" height="3" fill="#E6B99F"/>
<rect x="42" y="69" width="3" height="3" fill="#EBC0A7"/>
<rect x="45" y="69" width="3" height="3" fill="#ECC1A8"/>
<rect x="48" y="69" width="3" height="3" fill="#E8BCA2"/>
<rect x="51" y="69" width="3" height="3" fill="#ECC2A9"/>
<rect x="54" y="69" width="3" height="3" fill="#F1CAB1"/>
<rect x="57" y="69" width="3" height="3" fill="#EFC5AC"/>
<rect x="60" y="69" width="3" height="3" fill="#ECC1A8"/>
<rect x="63" y="69" width="3" height="3" fill="#ECC1A8"/>
<rect x="66" y="69" width="3" height="3" fill="#ECC1A8"/>
<rect x="69" y="69" width="3" height="3" fill="#ECC1A8"/>
<rect x="72" y="69" width="3" height="3" fill="#ECC1A8"/>
<rect x="75" y="69" width="3" height="3" fill="#ECC1A8"/>
<rect x="78" y="69" width="3" height="3" fill="#DBAE95"/>
<rect y="72" width="3" height="3" fill="#F2CBB3"/>
<rect x="3" y="72" width="3" height="3" fill="#F2CBB3"/>
<rect x="6" y="72" width="3" height="3" fill="#F2CBB3"/>
<rect x="9" y="72" width="3" height="3" fill="#F2CBB3"/>
<rect x="12" y="72" width="3" height="3" fill="#F2CBB3"/>
<rect x="15" y="72" width="3" height="3" fill="#F0C8B0"/>
<rect x="18" y="72" width="3" height="3" fill="#ECC2A9"/>
<rect x="21" y="72" width="3" height="3" fill="#EFC6AD"/>
<rect x="24" y="72" width="3" height="3" fill="#ECC1A8"/>
<rect x="27" y="72" width="3" height="3" fill="#ECC1A8"/>
<rect x="30" y="72" width="3" height="3" fill="#ECC1A8"/>
<rect x="33" y="72" width="3" height="3" fill="#ECC1A8"/>
<rect x="36" y="72" width="3" height="3" fill="#E6B99F"/>
<rect x="39" y="72" width="3" height="3" fill="#E6B99F"/>
<rect x="42" y="72" width="3" height="3" fill="#EBC0A7"/>
<rect x="45" y="72" width="3" height="3" fill="#E8BBA1"/>
<rect x="48" y="72" width="3" height="3" fill="#EBC1A8"/>
<rect x="51" y="72" width="3" height="3" fill="#EFC6AD"/>
<rect x="54" y="72" width="3" height="3" fill="#ECC2A9"/>
<rect x="57" y="72" width="3" height="3" fill="#E7BAA0"/>
<rect x="60" y="72" width="3" height="3" fill="#ECC1A8"/>
<rect x="63" y="72" width="3" height="3" fill="#ECC1A8"/>
<rect x="66" y="72" width="3" height="3" fill="#ECC1A8"/>
<rect x="69" y="72" width="3" height="3" fill="#ECC1A8"/>
<rect x="72" y="72" width="3" height="3" fill="#ECC1A8"/>
<rect x="75" y="72" width="3" height="3" fill="#E6B99F"/>
<rect x="78" y="72" width="3" height="3" fill="#E0B298"/>
<rect y="75" width="3" height="3" fill="#EFC6AD"/>
<rect x="3" y="75" width="3" height="3" fill="#E7BAA0"/>
<rect x="6" y="75" width="3" height="3" fill="#EFC6AE"/>
<rect x="9" y="75" width="3" height="3" fill="#F0C8B0"/>
<rect x="12" y="75" width="3" height="3" fill="#F0C7AF"/>
<rect x="15" y="75" width="3" height="3" fill="#F0C8B0"/>
<rect x="18" y="75" width="3" height="3" fill="#ECC1A8"/>
<rect x="21" y="75" width="3" height="3" fill="#ECC1A8"/>
<rect x="24" y="75" width="3" height="3" fill="#ECC1A8"/>
<rect x="27" y="75" width="3" height="3" fill="#ECC1A8"/>
<rect x="30" y="75" width="3" height="3" fill="#ECC1A8"/>
<rect x="33" y="75" width="3" height="3" fill="#ECC1A8"/>
<rect x="36" y="75" width="3" height="3" fill="#ECC1A8"/>
<rect x="39" y="75" width="3" height="3" fill="#E6B99F"/>
<rect x="42" y="75" width="3" height="3" fill="#DCAF96"/>
<rect x="45" y="75" width="3" height="3" fill="#DFB197"/>
<rect x="48" y="75" width="3" height="3" fill="#E4B69C"/>
<rect x="51" y="75" width="3" height="3" fill="#E6B99F"/>
<rect x="54" y="75" width="3" height="3" fill="#E8BCA2"/>
<rect x="57" y="75" width="3" height="3" fill="#EFC5AC"/>
<rect x="60" y="75" width="3" height="3" fill="#ECC1A8"/>
<rect x="63" y="75" width="3" height="3" fill="#ECC1A8"/>
<rect x="66" y="75" width="3" height="3" fill="#ECC1A8"/>
<rect x="69" y="75" width="3" height="3" fill="#ECC1A8"/>
<rect x="72" y="75" width="3" height="3" fill="#ECC1A8"/>
<rect x="75" y="75" width="3" height="3" fill="#E6B99F"/>
<rect x="78" y="75" width="3" height="3" fill="#E6B99F"/>
<rect y="78" width="3" height="3" fill="#E6B99F"/>
<rect x="3" y="78" width="3" height="3" fill="#E6B99F"/>
<rect x="6" y="78" width="3" height="3" fill="#E1B399"/>
<rect x="9" y="78" width="3" height="3" fill="#E3B59B"/>
<rect x="12" y="78" width="3" height="3" fill="#E6B99F"/>
<rect x="15" y="78" width="3" height="3" fill="#E7BBA1"/>
<rect x="18" y="78" width="3" height="3" fill="#ECC1A8"/>
<rect x="21" y="78" width="3" height="3" fill="#ECC1A8"/>
<rect x="24" y="78" width="3" height="3" fill="#E6B99F"/>
<rect x="27" y="78" width="3" height="3" fill="#ECC1A8"/>
<rect x="30" y="78" width="3" height="3" fill="#E6B99F"/>
<rect x="33" y="78" width="3" height="3" fill="#ECC1A8"/>
<rect x="36" y="78" width="3" height="3" fill="#E6B99F"/>
<rect x="39" y="78" width="3" height="3" fill="#E6B99F"/>
<rect x="42" y="78" width="3" height="3" fill="#E1B399"/>
<rect x="45" y="78" width="3" height="3" fill="#DCAF96"/>
<rect x="48" y="78" width="3" height="3" fill="#DBAE95"/>
<rect x="51" y="78" width="3" height="3" fill="#DDB096"/>
<rect x="54" y="78" width="3" height="3" fill="#E1B49A"/>
<rect x="57" y="78" width="3" height="3" fill="#E6B99F"/>
<rect x="60" y="78" width="3" height="3" fill="#E6B99F"/>
<rect x="63" y="78" width="3" height="3" fill="#ECC1A8"/>
<rect x="66" y="78" width="3" height="3" fill="#ECC1A8"/>
<rect x="69" y="78" width="3" height="3" fill="#E6B99F"/>
<rect x="72" y="78" width="3" height="3" fill="#E6B99F"/>
<rect x="75" y="78" width="3" height="3" fill="#E0B298"/>
<rect x="78" y="78" width="3" height="3" fill="#DBAE95"/>
<rect x="0.5" y="0.5" width="80" height="80" stroke="#FEE1CF"/>
</svg>
