<svg width="81" height="81" viewBox="0 0 81 81" fill="none" xmlns="http://www.w3.org/2000/svg">
<path d="M3 0H0V3H3V0Z" fill="#DBAE95"/>
<path d="M6 0H3V3H6V0Z" fill="#E0B298"/>
<path d="M9 0H6V3H9V0Z" fill="#E0B298"/>
<path d="M12 0H9V3H12V0Z" fill="#F2CBB3"/>
<path d="M15 0H12V3H15V0Z" fill="#F2CBB3"/>
<path d="M18 0H15V3H18V0Z" fill="#ECC1A8"/>
<path d="M21 0H18V3H21V0Z" fill="#ECC1A8"/>
<path d="M24 0H21V3H24V0Z" fill="#DBAE95"/>
<path d="M27 0H24V3H27V0Z" fill="#DBAE95"/>
<path d="M30 0H27V3H30V0Z" fill="#E0B298"/>
<path d="M33 0H30V3H33V0Z" fill="#ECC1A8"/>
<path d="M36 0H33V3H36V0Z" fill="#ECC1A8"/>
<path d="M39 0H36V3H39V0Z" fill="#ECC1A8"/>
<path d="M42 0H39V3H42V0Z" fill="#ECC1A8"/>
<path d="M45 0H42V3H45V0Z" fill="#E0B298"/>
<path d="M48 0H45V3H48V0Z" fill="#DBAE95"/>
<path d="M51 0H48V3H51V0Z" fill="#E0B298"/>
<path d="M54 0H51V3H54V0Z" fill="#ECC1A8"/>
<path d="M57 0H54V3H57V0Z" fill="#ECC1A8"/>
<path d="M60 0H57V3H60V0Z" fill="#ECC1A8"/>
<path d="M63 0H60V3H63V0Z" fill="#E0B298"/>
<path d="M66 0H63V3H66V0Z" fill="#E0B298"/>
<path d="M69 0H66V3H69V0Z" fill="#DBAE95"/>
<path d="M72 0H69V3H72V0Z" fill="#ECC1A8"/>
<path d="M75 0H72V3H75V0Z" fill="#ECC1A8"/>
<path d="M78 0H75V3H78V0Z" fill="#ECC1A8"/>
<path d="M3 3H0V6H3V3Z" fill="#DBAE95"/>
<path d="M6 3H3V6H6V3Z" fill="#DBAE95"/>
<path d="M9 3H6V6H9V3Z" fill="#E6B99F"/>
<path d="M12 3H9V6H12V3Z" fill="#ECC1A8"/>
<path d="M15 3H12V6H15V3Z" fill="#E6B99F"/>
<path d="M18 3H15V6H18V3Z" fill="#ECC1A8"/>
<path d="M21 3H18V6H21V3Z" fill="#ECC1A8"/>
<path d="M24 3H21V6H24V3Z" fill="#ECC1A8"/>
<path d="M27 3H24V6H27V3Z" fill="#DBAE95"/>
<path d="M30 3H27V6H30V3Z" fill="#DBAE95"/>
<path d="M33 3H30V6H33V3Z" fill="#E0B298"/>
<path d="M36 3H33V6H36V3Z" fill="#EFC6AD"/>
<path d="M39 3H36V6H39V3Z" fill="#EFC6AD"/>
<path d="M42 3H39V6H42V3Z" fill="#EFC6AD"/>
<path d="M45 3H42V6H45V3Z" fill="#EFC6AD"/>
<path d="M48 3H45V6H48V3Z" fill="#E0B298"/>
<path d="M51 3H48V6H51V3Z" fill="#DBAE95"/>
<path d="M54 3H51V6H54V3Z" fill="#E0B298"/>
<path d="M57 3H54V6H57V3Z" fill="#ECC1A8"/>
<path d="M60 3H57V6H60V3Z" fill="#ECC1A8"/>
<path d="M63 3H60V6H63V3Z" fill="#E0B298"/>
<path d="M66 3H63V6H66V3Z" fill="#E6B99F"/>
<path d="M69 3H66V6H69V3Z" fill="#E0B298"/>
<path d="M72 3H69V6H72V3Z" fill="#ECC1A8"/>
<path d="M75 3H72V6H75V3Z" fill="#ECC1A8"/>
<path d="M78 3H75V6H78V3Z" fill="#E6B99F"/>
<path d="M3 6H0V9H3V6Z" fill="#DBAE95"/>
<path d="M6 6H3V9H6V6Z" fill="#DBAE95"/>
<path d="M9 6H6V9H9V6Z" fill="#E6B99F"/>
<path d="M12 6H9V9H12V6Z" fill="#E6B99F"/>
<path d="M15 6H12V9H15V6Z" fill="#F2CBB3"/>
<path d="M18 6H15V9H18V6Z" fill="#F2CBB3"/>
<path d="M21 6H18V9H21V6Z" fill="#EFC6AD"/>
<path d="M24 6H21V9H24V6Z" fill="#E6B99F"/>
<path d="M27 6H24V9H27V6Z" fill="#E0B298"/>
<path d="M30 6H27V9H30V6Z" fill="#E0B298"/>
<path d="M33 6H30V9H33V6Z" fill="#E0B298"/>
<path d="M36 6H33V9H36V6Z" fill="#EFC6AD"/>
<path d="M39 6H36V9H39V6Z" fill="#F2CBB3"/>
<path d="M42 6H39V9H42V6Z" fill="#EFC6AD"/>
<path d="M45 6H42V9H45V6Z" fill="#ECC1A8"/>
<path d="M48 6H45V9H48V6Z" fill="#E6B99F"/>
<path d="M51 6H48V9H51V6Z" fill="#E0B298"/>
<path d="M54 6H51V9H54V6Z" fill="#E0B298"/>
<path d="M57 6H54V9H57V6Z" fill="#E0B298"/>
<path d="M60 6H57V9H60V6Z" fill="#E0B298"/>
<path d="M63 6H60V9H63V6Z" fill="#E0B298"/>
<path d="M66 6H63V9H66V6Z" fill="#ECC1A8"/>
<path d="M69 6H66V9H69V6Z" fill="#E6B99F"/>
<path d="M72 6H69V9H72V6Z" fill="#E6B99F"/>
<path d="M75 6H72V9H75V6Z" fill="#E6B99F"/>
<path d="M78 6H75V9H78V6Z" fill="#E6B99F"/>
<path d="M3 9H0V12H3V9Z" fill="#E0B298"/>
<path d="M6 9H3V12H6V9Z" fill="#E0B298"/>
<path d="M9 9H6V12H9V9Z" fill="#E6B99F"/>
<path d="M12 9H9V12H12V9Z" fill="#F2CBB3"/>
<path d="M15 9H12V12H15V9Z" fill="#F2CBB3"/>
<path d="M18 9H15V12H18V9Z" fill="#EFC6AD"/>
<path d="M21 9H18V12H21V9Z" fill="#EFC6AD"/>
<path d="M24 9H21V12H24V9Z" fill="#E6B99F"/>
<path d="M27 9H24V12H27V9Z" fill="#E6B99F"/>
<path d="M30 9H27V12H30V9Z" fill="#E0B298"/>
<path d="M33 9H30V12H33V9Z" fill="#E6B99F"/>
<path d="M36 9H33V12H36V9Z" fill="#F2CBB3"/>
<path d="M39 9H36V12H39V9Z" fill="#ECC1A8"/>
<path d="M42 9H39V12H42V9Z" fill="#EFC6AD"/>
<path d="M45 9H42V12H45V9Z" fill="#E6B99F"/>
<path d="M48 9H45V12H48V9Z" fill="#E0B298"/>
<path d="M51 9H48V12H51V9Z" fill="#E0B298"/>
<path d="M54 9H51V12H54V9Z" fill="#ECC1A8"/>
<path d="M57 9H54V12H57V9Z" fill="#9DAA73"/>
<path d="M60 9H57V12H60V9Z" fill="#ACBB7F"/>
<path d="M63 9H60V12H63V9Z" fill="#E6B99F"/>
<path d="M66 9H63V12H66V9Z" fill="#ECC1A8"/>
<path d="M69 9H66V12H69V9Z" fill="#F2CBB3"/>
<path d="M72 9H69V12H72V9Z" fill="#F2CBB3"/>
<path d="M75 9H72V12H75V9Z" fill="#E6B99F"/>
<path d="M78 9H75V12H78V9Z" fill="#E6B99F"/>
<path d="M3 12H0V15H3V12Z" fill="#E0B298"/>
<path d="M6 12H3V15H6V12Z" fill="#F2CBB3"/>
<path d="M9 12H6V15H9V12Z" fill="#F2CBB3"/>
<path d="M12 12H9V15H12V12Z" fill="#F2CBB3"/>
<path d="M15 12H12V15H15V12Z" fill="#EFC6AD"/>
<path d="M18 12H15V15H18V12Z" fill="#EFC6AD"/>
<path d="M21 12H18V15H21V12Z" fill="#ECC1A8"/>
<path d="M24 12H21V15H24V12Z" fill="#E0B298"/>
<path d="M27 12H24V15H27V12Z" fill="#ECC1A8"/>
<path d="M30 12H27V15H30V12Z" fill="#E6B99F"/>
<path d="M33 12H30V15H33V12Z" fill="#F2CBB3"/>
<path d="M36 12H33V15H36V12Z" fill="#EFC6AD"/>
<path d="M39 12H36V15H39V12Z" fill="#EFC6AD"/>
<path d="M42 12H39V15H42V12Z" fill="#E6B99F"/>
<path d="M45 12H42V15H45V12Z" fill="#ECC1A8"/>
<path d="M48 12H45V15H48V12Z" fill="#ECC1A8"/>
<path d="M51 12H48V15H51V12Z" fill="#E6B99F"/>
<path d="M54 12H51V15H54V12Z" fill="#E6B99F"/>
<path d="M57 12H54V15H57V12Z" fill="#DBAE95"/>
<path d="M60 12H57V15H60V12Z" fill="#DBAE95"/>
<path d="M63 12H60V15H63V12Z" fill="#ECC1A8"/>
<path d="M66 12H63V15H66V12Z" fill="#E6B99F"/>
<path d="M69 12H66V15H69V12Z" fill="#E6B99F"/>
<path d="M72 12H69V15H72V12Z" fill="#ECC1A8"/>
<path d="M75 12H72V15H75V12Z" fill="#F2CBB3"/>
<path d="M78 12H75V15H78V12Z" fill="#E0B298"/>
<path d="M3 15H0V18H3V15Z" fill="#F2CBB3"/>
<path d="M6 15H3V18H6V15Z" fill="#F2CBB3"/>
<path d="M9 15H6V18H9V15Z" fill="#F2CBB3"/>
<path d="M12 15H9V18H12V15Z" fill="#EFC6AD"/>
<path d="M15 15H12V18H15V15Z" fill="#ECC1A8"/>
<path d="M18 15H15V18H18V15Z" fill="#ECC1A8"/>
<path d="M21 15H18V18H21V15Z" fill="#ECC1A8"/>
<path d="M24 15H21V18H24V15Z" fill="#ECC1A8"/>
<path d="M27 15H24V18H27V15Z" fill="#F2CBB3"/>
<path d="M30 15H27V18H30V15Z" fill="#F2CBB3"/>
<path d="M33 15H30V18H33V15Z" fill="#EFC6AD"/>
<path d="M36 15H33V18H36V15Z" fill="#F2CBB3"/>
<path d="M39 15H36V18H39V15Z" fill="#EFC6AD"/>
<path d="M42 15H39V18H42V15Z" fill="#ECC1A8"/>
<path d="M45 15H42V18H45V15Z" fill="#ECC1A8"/>
<path d="M48 15H45V18H48V15Z" fill="#F2CBB3"/>
<path d="M51 15H48V18H51V15Z" fill="#EFC6AD"/>
<path d="M54 15H51V18H54V15Z" fill="#EFC6AD"/>
<path d="M57 15H54V18H57V15Z" fill="#EFC6AD"/>
<path d="M60 15H57V18H60V15Z" fill="#EFC6AD"/>
<path d="M63 15H60V18H63V15Z" fill="#ECC1A8"/>
<path d="M66 15H63V18H66V15Z" fill="#E0B298"/>
<path d="M69 15H66V18H69V15Z" fill="#E6B99F"/>
<path d="M72 15H69V18H72V15Z" fill="#E6B99F"/>
<path d="M75 15H72V18H75V15Z" fill="#DBAE95"/>
<path d="M78 15H75V18H78V15Z" fill="#DBAE95"/>
<path d="M3 18H0V21H3V18Z" fill="#F2CBB3"/>
<path d="M6 18H3V21H6V18Z" fill="#ECC1A8"/>
<path d="M9 18H6V21H9V18Z" fill="#EFC6AD"/>
<path d="M12 18H9V21H12V18Z" fill="#ECC1A8"/>
<path d="M15 18H12V21H15V18Z" fill="#ECC1A8"/>
<path d="M18 18H15V21H18V18Z" fill="#ECC1A8"/>
<path d="M21 18H18V21H21V18Z" fill="#E6B99F"/>
<path d="M24 18H21V21H24V18Z" fill="#F2CBB3"/>
<path d="M27 18H24V21H27V18Z" fill="#EFC6AD"/>
<path d="M30 18H27V21H30V18Z" fill="#EFC6AD"/>
<path d="M33 18H30V21H33V18Z" fill="#ECC1A8"/>
<path d="M36 18H33V21H36V18Z" fill="#EFC6AD"/>
<path d="M39 18H36V21H39V18Z" fill="#ECC1A8"/>
<path d="M42 18H39V21H42V18Z" fill="#ECC1A8"/>
<path d="M45 18H42V21H45V18Z" fill="#EFC6AD"/>
<path d="M48 18H45V21H48V18Z" fill="#F2CBB3"/>
<path d="M51 18H48V21H51V18Z" fill="#F2CBB3"/>
<path d="M54 18H51V21H54V18Z" fill="#EFC6AD"/>
<path d="M57 18H54V21H57V18Z" fill="#ECC1A8"/>
<path d="M60 18H57V21H60V18Z" fill="#ECC1A8"/>
<path d="M63 18H60V21H63V18Z" fill="#ECC1A8"/>
<path d="M66 18H63V21H66V18Z" fill="#ECC1A8"/>
<path d="M69 18H66V21H69V18Z" fill="#E0B298"/>
<path d="M72 18H69V21H72V18Z" fill="#ECC1A8"/>
<path d="M75 18H72V21H75V18Z" fill="#ECC1A8"/>
<path d="M78 18H75V21H78V18Z" fill="#E6B99F"/>
<path d="M3 21H0V24H3V21Z" fill="#EFC6AD"/>
<path d="M6 21H3V24H6V21Z" fill="#ECC1A8"/>
<path d="M9 21H6V24H9V21Z" fill="#E6B99F"/>
<path d="M12 21H9V24H12V21Z" fill="#ECC1A8"/>
<path d="M15 21H12V24H15V21Z" fill="#ECC1A8"/>
<path d="M18 21H15V24H18V21Z" fill="#E6B99F"/>
<path d="M21 21H18V24H21V21Z" fill="#F2CBB3"/>
<path d="M24 21H21V24H24V21Z" fill="#F2CBB3"/>
<path d="M27 21H24V24H27V21Z" fill="#F2CBB3"/>
<path d="M30 21H27V24H30V21Z" fill="#EFC6AD"/>
<path d="M33 21H30V24H33V21Z" fill="#ECC1A8"/>
<path d="M36 21H33V24H36V21Z" fill="#ECC1A8"/>
<path d="M39 21H36V24H39V21Z" fill="#E6B99F"/>
<path d="M42 21H39V24H42V21Z" fill="#F2CBB3"/>
<path d="M45 21H42V24H45V21Z" fill="#F2CBB3"/>
<path d="M48 21H45V24H48V21Z" fill="#EFC6AD"/>
<path d="M51 21H48V24H51V21Z" fill="#EFC6AD"/>
<path d="M54 21H51V24H54V21Z" fill="#ECC1A8"/>
<path d="M57 21H54V24H57V21Z" fill="#ECC1A8"/>
<path d="M60 21H57V24H60V21Z" fill="#ECC1A8"/>
<path d="M63 21H60V24H63V21Z" fill="#ECC1A8"/>
<path d="M66 21H63V24H66V21Z" fill="#ECC1A8"/>
<path d="M69 21H66V24H69V21Z" fill="#E0B298"/>
<path d="M72 21H69V24H72V21Z" fill="#ECC1A8"/>
<path d="M75 21H72V24H75V21Z" fill="#ECC1A8"/>
<path d="M78 21H75V24H78V21Z" fill="#ECC1A8"/>
<path d="M3 24H0V27H3V24Z" fill="#EFC6AD"/>
<path d="M6 24H3V27H6V24Z" fill="#E0B298"/>
<path d="M9 24H6V27H9V24Z" fill="#E6B99F"/>
<path d="M12 24H9V27H12V24Z" fill="#E6B99F"/>
<path d="M15 24H12V27H15V24Z" fill="#ECC1A8"/>
<path d="M18 24H15V27H18V24Z" fill="#E6B99F"/>
<path d="M21 24H18V27H21V24Z" fill="#F2CBB3"/>
<path d="M24 24H21V27H24V24Z" fill="#ACBB7F"/>
<path d="M27 24H24V27H27V24Z" fill="#EFC6AD"/>
<path d="M30 24H27V27H30V24Z" fill="#ECC1A8"/>
<path d="M33 24H30V27H33V24Z" fill="#ECC1A8"/>
<path d="M36 24H33V27H36V24Z" fill="#E6B99F"/>
<path d="M39 24H36V27H39V24Z" fill="#F2CBB3"/>
<path d="M42 24H39V27H42V24Z" fill="#F2CBB3"/>
<path d="M45 24H42V27H45V24Z" fill="#EFC6AD"/>
<path d="M48 24H45V27H48V24Z" fill="#F2CBB3"/>
<path d="M51 24H48V27H51V24Z" fill="#ECC1A8"/>
<path d="M54 24H51V27H54V24Z" fill="#ECC1A8"/>
<path d="M57 24H54V27H57V24Z" fill="#ECC1A8"/>
<path d="M60 24H57V27H60V24Z" fill="#ECC1A8"/>
<path d="M63 24H60V27H63V24Z" fill="#ECC1A8"/>
<path d="M66 24H63V27H66V24Z" fill="#E6B99F"/>
<path d="M69 24H66V27H69V24Z" fill="#ECC1A8"/>
<path d="M72 24H69V27H72V24Z" fill="#ECC1A8"/>
<path d="M75 24H72V27H75V24Z" fill="#ECC1A8"/>
<path d="M78 24H75V27H78V24Z" fill="#E6B99F"/>
<path d="M3 27H0V30H3V27Z" fill="#EFC6AD"/>
<path d="M6 27H3V30H6V27Z" fill="#E0B298"/>
<path d="M9 27H6V30H9V27Z" fill="#DBAE95"/>
<path d="M12 27H9V30H12V27Z" fill="#E0B298"/>
<path d="M15 27H12V30H15V27Z" fill="#E6B99F"/>
<path d="M18 27H15V30H18V27Z" fill="#F2CBB3"/>
<path d="M21 27H18V30H21V27Z" fill="#E6B99F"/>
<path d="M24 27H21V30H24V27Z" fill="#9DAA73"/>
<path d="M27 27H24V30H27V27Z" fill="#ECC1A8"/>
<path d="M30 27H27V30H30V27Z" fill="#A5B37A"/>
<path d="M33 27H30V30H33V27Z" fill="#E6B99F"/>
<path d="M36 27H33V30H36V27Z" fill="#F2CBB3"/>
<path d="M39 27H36V30H39V27Z" fill="#F2CBB3"/>
<path d="M42 27H39V30H42V27Z" fill="#EFC6AD"/>
<path d="M45 27H42V30H45V27Z" fill="#ECC1A8"/>
<path d="M48 27H45V30H48V27Z" fill="#ECC1A8"/>
<path d="M51 27H48V30H51V27Z" fill="#ECC1A8"/>
<path d="M54 27H51V30H54V27Z" fill="#ECC1A8"/>
<path d="M57 27H54V30H57V27Z" fill="#ECC1A8"/>
<path d="M60 27H57V30H60V27Z" fill="#ECC1A8"/>
<path d="M63 27H60V30H63V27Z" fill="#E6B99F"/>
<path d="M66 27H63V30H66V27Z" fill="#E6B99F"/>
<path d="M69 27H66V30H69V27Z" fill="#ECC1A8"/>
<path d="M72 27H69V30H72V27Z" fill="#E6B99F"/>
<path d="M75 27H72V30H75V27Z" fill="#DBAE95"/>
<path d="M81 0H78V3H81V0Z" fill="#ECC1A8"/>
<path d="M81 3H78V6H81V3Z" fill="#ECC1A8"/>
<path d="M81 6H78V9H81V6Z" fill="#E6B99F"/>
<path d="M81 9H78V12H81V9Z" fill="#E6B99F"/>
<path d="M81 12H78V15H81V12Z" fill="#F2CBB3"/>
<path d="M81 15H78V18H81V15Z" fill="#DBAE95"/>
<path d="M81 18H78V21H81V18Z" fill="#ECC1A8"/>
<path d="M81 21H78V24H81V21Z" fill="#ECC1A8"/>
<path d="M81 24H78V27H81V24Z" fill="#ECC1A8"/>
<path d="M81 27H78V30H81V27Z" fill="#DBAE95"/>
<path d="M78 27H75V30H78V27Z" fill="#DBAE95"/>
<path d="M3 30H0V33H3V30Z" fill="#E0B298"/>
<path d="M6 30H3V33H6V30Z" fill="#DBAE95"/>
<path d="M9 30H6V33H9V30Z" fill="#E6B99F"/>
<path d="M12 30H9V33H12V30Z" fill="#EFC6AD"/>
<path d="M15 30H12V33H15V30Z" fill="#F2CBB3"/>
<path d="M18 30H15V33H18V30Z" fill="#F2CBB3"/>
<path d="M21 30H18V33H21V30Z" fill="#F2CBB3"/>
<path d="M24 30H21V33H24V30Z" fill="#DBAE95"/>
<path d="M27 30H24V33H27V30Z" fill="#9DAA73"/>
<path d="M30 30H27V33H30V30Z" fill="#DBAE95"/>
<path d="M33 30H30V33H33V30Z" fill="#F2CBB3"/>
<path d="M36 30H33V33H36V30Z" fill="#F2CBB3"/>
<path d="M39 30H36V33H39V30Z" fill="#F2CBB3"/>
<path d="M42 30H39V33H42V30Z" fill="#EFC6AD"/>
<path d="M45 30H42V33H45V30Z" fill="#ECC1A8"/>
<path d="M48 30H45V33H48V30Z" fill="#ECC1A8"/>
<path d="M51 30H48V33H51V30Z" fill="#ECC1A8"/>
<path d="M54 30H51V33H54V30Z" fill="#ECC1A8"/>
<path d="M57 30H54V33H57V30Z" fill="#ECC1A8"/>
<path d="M60 30H57V33H60V30Z" fill="#E6B99F"/>
<path d="M63 30H60V33H63V30Z" fill="#DBAE95"/>
<path d="M66 30H63V33H66V30Z" fill="#ECC1A8"/>
<path d="M69 30H66V33H69V30Z" fill="#E6B99F"/>
<path d="M72 30H69V33H72V30Z" fill="#E0B298"/>
<path d="M75 30H72V33H75V30Z" fill="#E0B298"/>
<path d="M78 30H75V33H78V30Z" fill="#ACBB7F"/>
<path d="M3 33H0V36H3V33Z" fill="#DBAE95"/>
<path d="M6 33H3V36H6V33Z" fill="#DBAE95"/>
<path d="M9 33H6V36H9V33Z" fill="#E6B99F"/>
<path d="M12 33H9V36H12V33Z" fill="#F2CBB3"/>
<path d="M15 33H12V36H15V33Z" fill="#EFC6AD"/>
<path d="M18 33H15V36H18V33Z" fill="#F2CBB3"/>
<path d="M21 33H18V36H21V33Z" fill="#F2CBB3"/>
<path d="M24 33H21V36H24V33Z" fill="#ECC1A8"/>
<path d="M27 33H24V36H27V33Z" fill="#DBAE95"/>
<path d="M30 33H27V36H30V33Z" fill="#E0B298"/>
<path d="M33 33H30V36H33V33Z" fill="#F2CBB3"/>
<path d="M36 33H33V36H36V33Z" fill="#EFC6AD"/>
<path d="M39 33H36V36H39V33Z" fill="#EFC6AD"/>
<path d="M42 33H39V36H42V33Z" fill="#ECC1A8"/>
<path d="M45 33H42V36H45V33Z" fill="#ECC1A8"/>
<path d="M48 33H45V36H48V33Z" fill="#ECC1A8"/>
<path d="M51 33H48V36H51V33Z" fill="#ECC1A8"/>
<path d="M54 33H51V36H54V33Z" fill="#E6B99F"/>
<path d="M57 33H54V36H57V33Z" fill="#DBAE95"/>
<path d="M60 33H57V36H60V33Z" fill="#E0B298"/>
<path d="M63 33H60V36H63V33Z" fill="#F2CBB3"/>
<path d="M66 33H63V36H66V33Z" fill="#ECC1A8"/>
<path d="M69 33H66V36H69V33Z" fill="#E0B298"/>
<path d="M72 33H69V36H72V33Z" fill="#F2CBB3"/>
<path d="M75 33H72V36H75V33Z" fill="#ACBB7F"/>
<path d="M78 33H75V36H78V33Z" fill="#E0B298"/>
<path d="M3 36H0V39H3V36Z" fill="#E6B99F"/>
<path d="M6 36H3V39H6V36Z" fill="#E0B298"/>
<path d="M9 36H6V39H9V36Z" fill="#E6B99F"/>
<path d="M12 36H9V39H12V36Z" fill="#E6B99F"/>
<path d="M15 36H12V39H15V36Z" fill="#EFC6AD"/>
<path d="M18 36H15V39H18V36Z" fill="#EFC6AD"/>
<path d="M21 36H18V39H21V36Z" fill="#ECC1A8"/>
<path d="M24 36H21V39H24V36Z" fill="#9DAA73"/>
<path d="M27 36H24V39H27V36Z" fill="#DBAE95"/>
<path d="M30 36H27V39H30V36Z" fill="#DBAE95"/>
<path d="M33 36H30V39H33V36Z" fill="#EFC6AD"/>
<path d="M36 36H33V39H36V36Z" fill="#ECC1A8"/>
<path d="M39 36H36V39H39V36Z" fill="#ECC1A8"/>
<path d="M42 36H39V39H42V36Z" fill="#ECC1A8"/>
<path d="M45 36H42V39H45V36Z" fill="#ECC1A8"/>
<path d="M48 36H45V39H48V36Z" fill="#E6B99F"/>
<path d="M51 36H48V39H51V36Z" fill="#E6B99F"/>
<path d="M54 36H51V39H54V36Z" fill="#F2CBB3"/>
<path d="M57 36H54V39H57V36Z" fill="#F2CBB3"/>
<path d="M60 36H57V39H60V36Z" fill="#F2CBB3"/>
<path d="M63 36H60V39H63V36Z" fill="#EFC6AD"/>
<path d="M66 36H63V39H66V36Z" fill="#E6B99F"/>
<path d="M69 36H66V39H69V36Z" fill="#E6B99F"/>
<path d="M72 36H69V39H72V36Z" fill="#EFC6AD"/>
<path d="M75 36H72V39H75V36Z" fill="#A5B37A"/>
<path d="M78 36H75V39H78V36Z" fill="#E6B99F"/>
<path d="M3 39H0V42H3V39Z" fill="#EFC6AD"/>
<path d="M6 39H3V42H6V39Z" fill="#F2CBB3"/>
<path d="M9 39H6V42H9V39Z" fill="#F2CBB3"/>
<path d="M12 39H9V42H12V39Z" fill="#EFC6AD"/>
<path d="M15 39H12V42H15V39Z" fill="#EFC6AD"/>
<path d="M18 39H15V42H18V39Z" fill="#ECC1A8"/>
<path d="M21 39H18V42H21V39Z" fill="#ECC1A8"/>
<path d="M24 39H21V42H24V39Z" fill="#E0B298"/>
<path d="M27 39H24V42H27V39Z" fill="#E0B298"/>
<path d="M30 39H27V42H30V39Z" fill="#DBAE95"/>
<path d="M33 39H30V42H33V39Z" fill="#DBAE95"/>
<path d="M36 39H33V42H36V39Z" fill="#E6B99F"/>
<path d="M39 39H36V42H39V39Z" fill="#E6B99F"/>
<path d="M42 39H39V42H42V39Z" fill="#E0B298"/>
<path d="M45 39H42V42H45V39Z" fill="#ECC1A8"/>
<path d="M48 39H45V42H48V39Z" fill="#E6B99F"/>
<path d="M51 39H48V42H51V39Z" fill="#F2CBB3"/>
<path d="M54 39H51V42H54V39Z" fill="#EFC6AD"/>
<path d="M57 39H54V42H57V39Z" fill="#F2CBB3"/>
<path d="M60 39H57V42H60V39Z" fill="#EFC6AD"/>
<path d="M63 39H60V42H63V39Z" fill="#EFC6AD"/>
<path d="M66 39H63V42H66V39Z" fill="#EFC6AD"/>
<path d="M69 39H66V42H69V39Z" fill="#E6B99F"/>
<path d="M72 39H69V42H72V39Z" fill="#E0B298"/>
<path d="M75 39H72V42H75V39Z" fill="#A5B37A"/>
<path d="M78 39H75V42H78V39Z" fill="#EFC6AD"/>
<path d="M3 42H0V45H3V42Z" fill="#F2CBB3"/>
<path d="M6 42H3V45H6V42Z" fill="#E0B298"/>
<path d="M9 42H6V45H9V42Z" fill="#EFC6AD"/>
<path d="M12 42H9V45H12V42Z" fill="#ECC1A8"/>
<path d="M15 42H12V45H15V42Z" fill="#ECC1A8"/>
<path d="M18 42H15V45H18V42Z" fill="#ECC1A8"/>
<path d="M21 42H18V45H21V42Z" fill="#ECC1A8"/>
<path d="M24 42H21V45H24V42Z" fill="#E6B99F"/>
<path d="M27 42H24V45H27V42Z" fill="#E0B298"/>
<path d="M30 42H27V45H30V42Z" fill="#E6B99F"/>
<path d="M33 42H30V45H33V42Z" fill="#F2CBB3"/>
<path d="M36 42H33V45H36V42Z" fill="#F2CBB3"/>
<path d="M39 42H36V45H39V42Z" fill="#F2CBB3"/>
<path d="M42 42H39V45H42V42Z" fill="#DBAE95"/>
<path d="M45 42H42V45H45V42Z" fill="#ECC1A8"/>
<path d="M48 42H45V45H48V42Z" fill="#E0B298"/>
<path d="M51 42H48V45H51V42Z" fill="#EFC6AD"/>
<path d="M54 42H51V45H54V42Z" fill="#EFC6AD"/>
<path d="M57 42H54V45H57V42Z" fill="#ECC1A8"/>
<path d="M60 42H57V45H60V42Z" fill="#EFC6AD"/>
<path d="M63 42H60V45H63V42Z" fill="#ECC1A8"/>
<path d="M66 42H63V45H66V42Z" fill="#ECC1A8"/>
<path d="M69 42H66V45H69V42Z" fill="#ECC1A8"/>
<path d="M81 33H78V36H81V33Z" fill="#E0B298"/>
<path d="M81 36H78V39H81V36Z" fill="#E6B99F"/>
<path d="M81 39H78V42H81V39Z" fill="#E6B99F"/>
<path d="M81 42H78V45H81V42Z" fill="#ECC1A8"/>
<path d="M72 42H69V45H72V42Z" fill="#ACBB7F"/>
<path d="M75 42H72V45H75V42Z" fill="#E0B298"/>
<path d="M78 42H75V45H78V42Z" fill="#ECC1A8"/>
<path d="M3 45H0V48H3V45Z" fill="#F2CBB3"/>
<path d="M6 45H3V48H6V45Z" fill="#EFC6AD"/>
<path d="M9 45H6V48H9V45Z" fill="#E6B99F"/>
<path d="M12 45H9V48H12V45Z" fill="#ECC1A8"/>
<path d="M15 45H12V48H15V45Z" fill="#ECC1A8"/>
<path d="M18 45H15V48H18V45Z" fill="#ECC1A8"/>
<path d="M21 45H18V48H21V45Z" fill="#ECC1A8"/>
<path d="M24 45H21V48H24V45Z" fill="#F2CBB3"/>
<path d="M27 45H24V48H27V45Z" fill="#F2CBB3"/>
<path d="M30 45H27V48H30V45Z" fill="#F2CBB3"/>
<path d="M33 45H30V48H33V45Z" fill="#F2CBB3"/>
<path d="M36 45H33V48H36V45Z" fill="#F2CBB3"/>
<path d="M39 45H36V48H39V45Z" fill="#EFC6AD"/>
<path d="M42 45H39V48H42V45Z" fill="#E0B298"/>
<path d="M45 45H42V48H45V45Z" fill="#E6B99F"/>
<path d="M48 45H45V48H48V45Z" fill="#F2CBB3"/>
<path d="M51 45H48V48H51V45Z" fill="#EFC6AD"/>
<path d="M54 45H51V48H54V45Z" fill="#ECC1A8"/>
<path d="M57 45H54V48H57V45Z" fill="#ECC1A8"/>
<path d="M60 45H57V48H60V45Z" fill="#ECC1A8"/>
<path d="M63 45H60V48H63V45Z" fill="#ECC1A8"/>
<path d="M66 45H63V48H66V45Z" fill="#ECC1A8"/>
<path d="M69 45H66V48H69V45Z" fill="#E6B99F"/>
<path d="M72 45H69V48H72V45Z" fill="#ACBB7F"/>
<path d="M75 45H72V48H75V45Z" fill="#E6B99F"/>
<path d="M78 45H75V48H78V45Z" fill="#ACBB7F"/>
<path d="M81 30H78V33H81V30Z" fill="#ACBB7F"/>
<path d="M81 45H78V48H81V45Z" fill="#ACBB7F"/>
<path d="M3 48H0V51H3V48Z" fill="#F2CBB3"/>
<path d="M6 48H3V51H6V48Z" fill="#ECC1A8"/>
<path d="M9 48H6V51H9V48Z" fill="#ECC1A8"/>
<path d="M12 48H9V51H12V48Z" fill="#ECC1A8"/>
<path d="M15 48H12V51H15V48Z" fill="#ECC1A8"/>
<path d="M18 48H15V51H18V48Z" fill="#ECC1A8"/>
<path d="M21 48H18V51H21V48Z" fill="#ECC1A8"/>
<path d="M24 48H21V51H24V48Z" fill="#E6B99F"/>
<path d="M27 48H24V51H27V48Z" fill="#F2CBB3"/>
<path d="M30 48H27V51H30V48Z" fill="#EFC6AD"/>
<path d="M33 48H30V51H33V48Z" fill="#EFC6AD"/>
<path d="M36 48H33V51H36V48Z" fill="#EFC6AD"/>
<path d="M39 48H36V51H39V48Z" fill="#ECC1A8"/>
<path d="M42 48H39V51H42V48Z" fill="#EFC6AD"/>
<path d="M45 48H42V51H45V48Z" fill="#EFC6AD"/>
<path d="M48 48H45V51H48V48Z" fill="#DBAE95"/>
<path d="M51 48H48V51H51V48Z" fill="#E6B99F"/>
<path d="M54 48H51V51H54V48Z" fill="#ECC1A8"/>
<path d="M57 48H54V51H57V48Z" fill="#ECC1A8"/>
<path d="M60 48H57V51H60V48Z" fill="#ECC1A8"/>
<path d="M63 48H60V51H63V48Z" fill="#ECC1A8"/>
<path d="M66 48H63V51H66V48Z" fill="#ECC1A8"/>
<path d="M69 48H66V51H69V48Z" fill="#ECC1A8"/>
<path d="M72 48H69V51H72V48Z" fill="#A5B37A"/>
<path d="M75 48H72V51H75V48Z" fill="#A5B37A"/>
<path d="M78 48H75V51H78V48Z" fill="#DBAE95"/>
<path d="M3 51H0V54H3V51Z" fill="#ECC1A8"/>
<path d="M6 51H3V54H6V51Z" fill="#E6B99F"/>
<path d="M9 51H6V54H9V51Z" fill="#ECC1A8"/>
<path d="M12 51H9V54H12V51Z" fill="#ECC1A8"/>
<path d="M15 51H12V54H15V51Z" fill="#EFC6AD"/>
<path d="M18 51H15V54H18V51Z" fill="#ECC1A8"/>
<path d="M21 51H18V54H21V51Z" fill="#E6B99F"/>
<path d="M24 51H21V54H24V51Z" fill="#E0B298"/>
<path d="M27 51H24V54H27V51Z" fill="#EFC6AD"/>
<path d="M30 51H27V54H30V51Z" fill="#ECC1A8"/>
<path d="M33 51H30V54H33V51Z" fill="#EFC6AD"/>
<path d="M36 51H33V54H36V51Z" fill="#ECC1A8"/>
<path d="M39 51H36V54H39V51Z" fill="#ECC1A8"/>
<path d="M42 51H39V54H42V51Z" fill="#ECC1A8"/>
<path d="M45 51H42V54H45V51Z" fill="#ECC1A8"/>
<path d="M48 51H45V54H48V51Z" fill="#E6B99F"/>
<path d="M51 51H48V54H51V51Z" fill="#E0B298"/>
<path d="M54 51H51V54H54V51Z" fill="#ECC1A8"/>
<path d="M57 51H54V54H57V51Z" fill="#ECC1A8"/>
<path d="M60 51H57V54H60V51Z" fill="#ECC1A8"/>
<path d="M63 51H60V54H63V51Z" fill="#ECC1A8"/>
<path d="M66 51H63V54H66V51Z" fill="#ECC1A8"/>
<path d="M69 51H66V54H69V51Z" fill="#ECC1A8"/>
<path d="M81 48H78V51H81V48Z" fill="#ECC1A8"/>
<path d="M81 51H78V54H81V51Z" fill="#ECC1A8"/>
<path d="M72 51H69V54H72V51Z" fill="#A5B37A"/>
<path d="M75 51H72V54H75V51Z" fill="#9DAA73"/>
<path d="M78 51H75V54H78V51Z" fill="#ECC1A8"/>
<path d="M3 54H0V57H3V54Z" fill="#ECC1A8"/>
<path d="M6 54H3V57H6V54Z" fill="#E6B99F"/>
<path d="M9 54H6V57H9V54Z" fill="#E6B99F"/>
<path d="M12 54H9V57H12V54Z" fill="#E6B99F"/>
<path d="M15 54H12V57H15V54Z" fill="#ECC1A8"/>
<path d="M18 54H15V57H18V54Z" fill="#E0B298"/>
<path d="M21 54H18V57H21V54Z" fill="#E6B99F"/>
<path d="M24 54H21V57H24V54Z" fill="#ECC1A8"/>
<path d="M27 54H24V57H27V54Z" fill="#ECC1A8"/>
<path d="M30 54H27V57H30V54Z" fill="#ECC1A8"/>
<path d="M33 54H30V57H33V54Z" fill="#ECC1A8"/>
<path d="M36 54H33V57H36V54Z" fill="#ECC1A8"/>
<path d="M39 54H36V57H39V54Z" fill="#ECC1A8"/>
<path d="M42 54H39V57H42V54Z" fill="#ECC1A8"/>
<path d="M45 54H42V57H45V54Z" fill="#ECC1A8"/>
<path d="M48 54H45V57H48V54Z" fill="#E6B99F"/>
<path d="M51 54H48V57H51V54Z" fill="#ECC1A8"/>
<path d="M54 54H51V57H54V54Z" fill="#ECC1A8"/>
<path d="M57 54H54V57H57V54Z" fill="#ECC1A8"/>
<path d="M60 54H57V57H60V54Z" fill="#ECC1A8"/>
<path d="M63 54H60V57H63V54Z" fill="#ECC1A8"/>
<path d="M66 54H63V57H66V54Z" fill="#ECC1A8"/>
<path d="M69 54H66V57H69V54Z" fill="#ACBB7F"/>
<path d="M72 54H69V57H72V54Z" fill="#9DAA73"/>
<path d="M75 54H72V57H75V54Z" fill="#E0B298"/>
<path d="M78 54H75V57H78V54Z" fill="#E6B99F"/>
<path d="M3 57H0V60H3V57Z" fill="#ECC1A8"/>
<path d="M6 57H3V60H6V57Z" fill="#E0B298"/>
<path d="M9 57H6V60H9V57Z" fill="#E6B99F"/>
<path d="M12 57H9V60H12V57Z" fill="#E6B99F"/>
<path d="M15 57H12V60H15V57Z" fill="#DBAE95"/>
<path d="M18 57H15V60H18V57Z" fill="#F2CBB3"/>
<path d="M21 57H18V60H21V57Z" fill="#E6B99F"/>
<path d="M24 57H21V60H24V57Z" fill="#ECC1A8"/>
<path d="M27 57H24V60H27V57Z" fill="#E6B99F"/>
<path d="M30 57H27V60H30V57Z" fill="#EFC6AD"/>
<path d="M33 57H30V60H33V57Z" fill="#ECC1A8"/>
<path d="M36 57H33V60H36V57Z" fill="#ECC1A8"/>
<path d="M39 57H36V60H39V57Z" fill="#ECC1A8"/>
<path d="M42 57H39V60H42V57Z" fill="#ECC1A8"/>
<path d="M45 57H42V60H45V57Z" fill="#ECC1A8"/>
<path d="M48 57H45V60H48V57Z" fill="#E6B99F"/>
<path d="M51 57H48V60H51V57Z" fill="#ECC1A8"/>
<path d="M54 57H51V60H54V57Z" fill="#ECC1A8"/>
<path d="M57 57H54V60H57V57Z" fill="#ECC1A8"/>
<path d="M60 57H57V60H60V57Z" fill="#ECC1A8"/>
<path d="M63 57H60V60H63V57Z" fill="#ECC1A8"/>
<path d="M66 57H63V60H66V57Z" fill="#ACBB7F"/>
<path d="M69 57H66V60H69V57Z" fill="#A5B37A"/>
<path d="M72 57H69V60H72V57Z" fill="#DBAE95"/>
<path d="M75 57H72V60H75V57Z" fill="#E6B99F"/>
<path d="M78 57H75V60H78V57Z" fill="#E6B99F"/>
<path d="M3 60H0V63H3V60Z" fill="#ECC1A8"/>
<path d="M6 60H3V63H6V60Z" fill="#DBAE95"/>
<path d="M9 60H6V63H9V60Z" fill="#E0B298"/>
<path d="M12 60H9V63H12V60Z" fill="#E6B99F"/>
<path d="M15 60H12V63H15V60Z" fill="#F2CBB3"/>
<path d="M18 60H15V63H18V60Z" fill="#F2CBB3"/>
<path d="M21 60H18V63H21V60Z" fill="#EFC6AD"/>
<path d="M24 60H21V63H24V60Z" fill="#E6B99F"/>
<path d="M27 60H24V63H27V60Z" fill="#E6B99F"/>
<path d="M30 60H27V63H30V60Z" fill="#ECC1A8"/>
<path d="M33 60H30V63H33V60Z" fill="#ECC1A8"/>
<path d="M36 60H33V63H36V60Z" fill="#ECC1A8"/>
<path d="M39 60H36V63H39V60Z" fill="#ECC1A8"/>
<path d="M42 60H39V63H42V60Z" fill="#ECC1A8"/>
<path d="M45 60H42V63H45V60Z" fill="#E6B99F"/>
<path d="M48 60H45V63H48V60Z" fill="#F2CBB3"/>
<path d="M51 60H48V63H51V60Z" fill="#E6B99F"/>
<path d="M54 60H51V63H54V60Z" fill="#ECC1A8"/>
<path d="M57 60H54V63H57V60Z" fill="#ECC1A8"/>
<path d="M60 60H57V63H60V60Z" fill="#ECC1A8"/>
<path d="M63 60H60V63H63V60Z" fill="#ACBB7F"/>
<path d="M66 60H63V63H66V60Z" fill="#DBAE95"/>
<path d="M69 60H66V63H69V60Z" fill="#DBAE95"/>
<path d="M72 60H69V63H72V60Z" fill="#EFC6AD"/>
<path d="M75 60H72V63H75V60Z" fill="#F2CBB3"/>
<path d="M78 60H75V63H78V60Z" fill="#E0B298"/>
<path d="M3 63H0V66H3V63Z" fill="#EFC6AD"/>
<path d="M6 63H3V66H6V63Z" fill="#DBAE95"/>
<path d="M9 63H6V66H9V63Z" fill="#E0B298"/>
<path d="M12 63H9V66H12V63Z" fill="#EFC6AD"/>
<path d="M15 63H12V66H15V63Z" fill="#F2CBB3"/>
<path d="M18 63H15V66H18V63Z" fill="#EFC6AD"/>
<path d="M21 63H18V66H21V63Z" fill="#EFC6AD"/>
<path d="M24 63H21V66H24V63Z" fill="#E6B99F"/>
<path d="M27 63H24V66H27V63Z" fill="#ECC1A8"/>
<path d="M30 63H27V66H30V63Z" fill="#E0B298"/>
<path d="M33 63H30V66H33V63Z" fill="#ECC1A8"/>
<path d="M36 63H33V66H36V63Z" fill="#E6B99F"/>
<path d="M39 63H36V66H39V63Z" fill="#E6B99F"/>
<path d="M42 63H39V66H42V63Z" fill="#F2CBB3"/>
<path d="M45 63H42V66H45V63Z" fill="#F2CBB3"/>
<path d="M48 63H45V66H48V63Z" fill="#EFC6AD"/>
<path d="M51 63H48V66H51V63Z" fill="#F2CBB3"/>
<path d="M54 63H51V66H54V63Z" fill="#ECC1A8"/>
<path d="M57 63H54V66H57V63Z" fill="#ECC1A8"/>
<path d="M60 63H57V66H60V63Z" fill="#E6B99F"/>
<path d="M63 63H60V66H63V63Z" fill="#9DAA73"/>
<path d="M66 63H63V66H66V63Z" fill="#DBAE95"/>
<path d="M69 63H66V66H69V63Z" fill="#EFC6AD"/>
<path d="M72 63H69V66H72V63Z" fill="#EFC6AD"/>
<path d="M75 63H72V66H75V63Z" fill="#EFC6AD"/>
<path d="M78 63H75V66H78V63Z" fill="#E6B99F"/>
<path d="M3 66H0V69H3V66Z" fill="#DBAE95"/>
<path d="M6 66H3V69H6V66Z" fill="#E6B99F"/>
<path d="M9 66H6V69H9V66Z" fill="#F2CBB3"/>
<path d="M12 66H9V69H12V66Z" fill="#F2CBB3"/>
<path d="M15 66H12V69H15V66Z" fill="#EFC6AD"/>
<path d="M18 66H15V69H18V66Z" fill="#F2CBB3"/>
<path d="M21 66H18V69H21V66Z" fill="#ECC1A8"/>
<path d="M24 66H21V69H24V66Z" fill="#ECC1A8"/>
<path d="M27 66H24V69H27V66Z" fill="#ECC1A8"/>
<path d="M30 66H27V69H30V66Z" fill="#ECC1A8"/>
<path d="M33 66H30V69H33V66Z" fill="#E0B298"/>
<path d="M36 66H33V69H36V66Z" fill="#F2CBB3"/>
<path d="M39 66H36V69H39V66Z" fill="#F2CBB3"/>
<path d="M42 66H39V69H42V66Z" fill="#F2CBB3"/>
<path d="M45 66H42V69H45V66Z" fill="#EFC6AD"/>
<path d="M48 66H45V69H48V66Z" fill="#EFC6AD"/>
<path d="M51 66H48V69H51V66Z" fill="#EFC6AD"/>
<path d="M54 66H51V69H54V66Z" fill="#E6B99F"/>
<path d="M57 66H54V69H57V66Z" fill="#DBAE95"/>
<path d="M60 66H57V69H60V66Z" fill="#ACBB7F"/>
<path d="M63 66H60V69H63V66Z" fill="#DBAE95"/>
<path d="M66 66H63V69H66V66Z" fill="#F2CBB3"/>
<path d="M69 66H66V69H69V66Z" fill="#EFC6AD"/>
<path d="M72 66H69V69H72V66Z" fill="#ECC1A8"/>
<path d="M75 66H72V69H75V66Z" fill="#ECC1A8"/>
<path d="M78 66H75V69H78V66Z" fill="#EFC6AD"/>
<path d="M3 69H0V72H3V69Z" fill="#ECC1A8"/>
<path d="M6 69H3V72H6V69Z" fill="#E6B99F"/>
<path d="M9 69H6V72H9V69Z" fill="#F2CBB3"/>
<path d="M12 69H9V72H12V69Z" fill="#EFC6AD"/>
<path d="M15 69H12V72H15V69Z" fill="#EFC6AD"/>
<path d="M18 69H15V72H18V69Z" fill="#EFC6AD"/>
<path d="M21 69H18V72H21V69Z" fill="#ECC1A8"/>
<path d="M24 69H21V72H24V69Z" fill="#ECC1A8"/>
<path d="M27 69H24V72H27V69Z" fill="#ECC1A8"/>
<path d="M30 69H27V72H30V69Z" fill="#ECC1A8"/>
<path d="M33 69H30V72H33V69Z" fill="#E6B99F"/>
<path d="M36 69H33V72H36V69Z" fill="#EFC6AD"/>
<path d="M39 69H36V72H39V69Z" fill="#F2CBB3"/>
<path d="M42 69H39V72H42V69Z" fill="#EFC6AD"/>
<path d="M45 69H42V72H45V69Z" fill="#ECC1A8"/>
<path d="M48 69H45V72H48V69Z" fill="#ECC1A8"/>
<path d="M51 69H48V72H51V69Z" fill="#EFC6AD"/>
<path d="M54 69H51V72H54V69Z" fill="#EFC6AD"/>
<path d="M57 69H54V72H57V69Z" fill="#E6B99F"/>
<path d="M60 69H57V72H60V69Z" fill="#9DAA73"/>
<path d="M63 69H60V72H63V69Z" fill="#DBAE95"/>
<path d="M66 69H63V72H66V69Z" fill="#ECC1A8"/>
<path d="M69 69H66V72H69V69Z" fill="#ECC1A8"/>
<path d="M72 69H69V72H72V69Z" fill="#ECC1A8"/>
<path d="M75 69H72V72H75V69Z" fill="#ECC1A8"/>
<path d="M78 69H75V72H78V69Z" fill="#ECC1A8"/>
<path d="M3 72H0V75H3V72Z" fill="#E6B99F"/>
<path d="M6 72H3V75H6V72Z" fill="#E0B298"/>
<path d="M9 72H6V75H9V72Z" fill="#E0B298"/>
<path d="M12 72H9V75H12V72Z" fill="#E6B99F"/>
<path d="M15 72H12V75H15V72Z" fill="#ECC1A8"/>
<path d="M18 72H15V75H18V72Z" fill="#ECC1A8"/>
<path d="M21 72H18V75H21V72Z" fill="#ECC1A8"/>
<path d="M24 72H21V75H24V72Z" fill="#ECC1A8"/>
<path d="M27 72H24V75H27V72Z" fill="#ECC1A8"/>
<path d="M30 72H27V75H30V72Z" fill="#E0B298"/>
<path d="M33 72H30V75H33V72Z" fill="#ECC1A8"/>
<path d="M36 72H33V75H36V72Z" fill="#EFC6AD"/>
<path d="M39 72H36V75H39V72Z" fill="#EFC6AD"/>
<path d="M42 72H39V75H42V72Z" fill="#ECC1A8"/>
<path d="M45 72H42V75H45V72Z" fill="#ECC1A8"/>
<path d="M48 72H45V75H48V72Z" fill="#ECC1A8"/>
<path d="M51 72H48V75H51V72Z" fill="#ECC1A8"/>
<path d="M54 72H51V75H54V72Z" fill="#ECC1A8"/>
<path d="M57 72H54V75H57V72Z" fill="#DBAE95"/>
<path d="M60 72H57V75H60V72Z" fill="#9DAA73"/>
<path d="M63 72H60V75H63V72Z" fill="#DBAE95"/>
<path d="M66 72H63V75H66V72Z" fill="#ECC1A8"/>
<path d="M69 72H66V75H69V72Z" fill="#ECC1A8"/>
<path d="M72 72H69V75H72V72Z" fill="#ECC1A8"/>
<path d="M75 72H72V75H75V72Z" fill="#ECC1A8"/>
<path d="M78 72H75V75H78V72Z" fill="#E6B99F"/>
<path d="M3 78H0V81H3V78Z" fill="#E6B99F"/>
<path d="M6 78H3V81H6V78Z" fill="#E0B298"/>
<path d="M9 78H6V81H9V78Z" fill="#E0B298"/>
<path d="M12 78H9V81H12V78Z" fill="#E6B99F"/>
<path d="M15 78H12V81H15V78Z" fill="#ECC1A8"/>
<path d="M18 78H15V81H18V78Z" fill="#ECC1A8"/>
<path d="M21 78H18V81H21V78Z" fill="#ECC1A8"/>
<path d="M24 78H21V81H24V78Z" fill="#ECC1A8"/>
<path d="M27 78H24V81H27V78Z" fill="#ECC1A8"/>
<path d="M30 78H27V81H30V78Z" fill="#E0B298"/>
<path d="M33 78H30V81H33V78Z" fill="#ECC1A8"/>
<path d="M36 78H33V81H36V78Z" fill="#EFC6AD"/>
<path d="M39 78H36V81H39V78Z" fill="#EFC6AD"/>
<path d="M42 78H39V81H42V78Z" fill="#ECC1A8"/>
<path d="M45 78H42V81H45V78Z" fill="#ECC1A8"/>
<path d="M48 78H45V81H48V78Z" fill="#ECC1A8"/>
<path d="M51 78H48V81H51V78Z" fill="#ECC1A8"/>
<path d="M54 78H51V81H54V78Z" fill="#ECC1A8"/>
<path d="M60 78H57V81H60V78Z" fill="#ECC1A8"/>
<path d="M57 78H54V81H57V78Z" fill="#DBAE95"/>
<path d="M63 78H60V81H63V78Z" fill="#DBAE95"/>
<path d="M66 78H63V81H66V78Z" fill="#ECC1A8"/>
<path d="M69 78H66V81H69V78Z" fill="#ECC1A8"/>
<path d="M72 78H69V81H72V78Z" fill="#ECC1A8"/>
<path d="M75 78H72V81H75V78Z" fill="#ECC1A8"/>
<path d="M78 78H75V81H78V78Z" fill="#E6B99F"/>
<path d="M3 75H0V78H3V75Z" fill="#E0B298"/>
<path d="M6 75H3V78H6V75Z" fill="#E0B298"/>
<path d="M9 75H6V78H9V75Z" fill="#E0B298"/>
<path d="M12 75H9V78H12V75Z" fill="#E0B298"/>
<path d="M15 75H12V78H15V75Z" fill="#E0B298"/>
<path d="M18 75H15V78H18V75Z" fill="#E6B99F"/>
<path d="M21 75H18V78H21V75Z" fill="#E6B99F"/>
<path d="M24 75H21V78H24V75Z" fill="#ECC1A8"/>
<path d="M27 75H24V78H27V75Z" fill="#E6B99F"/>
<path d="M30 75H27V78H30V75Z" fill="#E0B298"/>
<path d="M33 75H30V78H33V75Z" fill="#ECC1A8"/>
<path d="M36 75H33V78H36V75Z" fill="#E6B99F"/>
<path d="M39 75H36V78H39V75Z" fill="#ECC1A8"/>
<path d="M42 75H39V78H42V75Z" fill="#ECC1A8"/>
<path d="M45 75H42V78H45V75Z" fill="#ECC1A8"/>
<path d="M48 75H45V78H48V75Z" fill="#E6B99F"/>
<path d="M51 75H48V78H51V75Z" fill="#E6B99F"/>
<path d="M54 75H51V78H54V75Z" fill="#E0B298"/>
<path d="M57 75H54V78H57V75Z" fill="#A5B37A"/>
<path d="M60 75H57V78H60V75Z" fill="#DBAE95"/>
<path d="M63 75H60V78H63V75Z" fill="#DBAE95"/>
<path d="M66 75H63V78H66V75Z" fill="#E6B99F"/>
<path d="M69 75H66V78H69V75Z" fill="#E0B298"/>
<path d="M72 75H69V78H72V75Z" fill="#ECC1A8"/>
<path d="M75 75H72V78H75V75Z" fill="#ECC1A8"/>
<path d="M81 54H78V57H81V54Z" fill="#E0B298"/>
<path d="M81 57H78V60H81V57Z" fill="#E6B99F"/>
<path d="M81 60H78V63H81V60Z" fill="#F2CBB3"/>
<path d="M81 63H78V66H81V63Z" fill="#EFC6AD"/>
<path d="M81 66H78V69H81V66Z" fill="#ECC1A8"/>
<path d="M81 69H78V72H81V69Z" fill="#ECC1A8"/>
<path d="M81 72H78V75H81V72Z" fill="#ECC1A8"/>
<path d="M81 78H78V81H81V78Z" fill="#ECC1A8"/>
<path d="M81 75H78V78H81V75Z" fill="#ECC1A8"/>
<path d="M78 75H75V78H78V75Z" fill="#ECC1A8"/>
<path d="M57 78H54V81H57V78Z" fill="#9DAA73"/>
<rect x="0.5" y="0.5" width="80" height="80" stroke="#FEE1CF"/>
</svg>
